<svg version="1.1" viewBox="0.0 0.0 1000.0 100.0" fill="none" stroke="none" stroke-linecap="square" stroke-miterlimit="10" xmlns:xlink="http://www.w3.org/1999/xlink" xmlns="http://www.w3.org/2000/svg"><clipPath id="g3808041fbb7_2_75.0"><path d="m0 0l1000.0 0l0 100.0l-1000.0 0l0 -100.0z" clip-rule="nonzero"/></clipPath><g clip-path="url(#g3808041fbb7_2_75.0)"><path fill="#5fa8d3" d="m0 0l1000.0 0l0 100.0l-1000.0 0z" fill-rule="evenodd"/><path fill="#000000" fill-opacity="0.0" d="m12.060354 11.319092l136.25197 0l0 20.440945l-136.25197 0z" fill-rule="evenodd"/><path fill="#5fa8d3" d="m30.690954 11.319092l98.99076 0l0 20.224l-98.99076 0l0 -20.224z" fill-rule="nonzero"/><path fill="#000000" fill-opacity="0.0" d="m30.690954 11.193499l98.99076 0l0 20.532587l-98.99076 0l0 -20.532587z" fill-rule="nonzero"/><path fill="#cae9ff" d="m32.08158 27.498293l0 -11.796875l5.109375 0q1.578125 0 2.71875 0.515625q1.15625 0.515625 1.78125 1.484375q0.625 0.953125 0.625 2.28125q0 1.3125 -0.625 2.28125q-0.625 0.953125 -1.78125 1.46875q-1.140625 0.515625 -2.71875 0.515625l-3.59375 0l1.21875 -1.234375l0 4.484375l-2.734375 0zm2.734375 -4.171875l-1.21875 -1.296875l3.4375 0q1.265625 0 1.890625 -0.53125q0.625 -0.546875 0.625 -1.515625q0 -0.96875 -0.625 -1.5q-0.625 -0.546875 -1.890625 -0.546875l-3.4375 0l1.21875 -1.296875l0 6.6875zm9.426758 4.171875l0 -11.796875l5.046875 0q2.453125 0 3.8125 1.140625q1.375 1.140625 1.375 3.140625q0 1.3125 -0.625 2.265625q-0.625 0.953125 -1.78125 1.46875q-1.140625 0.5 -2.71875 0.5l-3.59375 0l1.21875 -1.203125l0 4.484375l-2.734375 0zm7.5 0l-2.9375 -4.28125l2.90625 0l2.984375 4.28125l-2.953125 0zm-4.765625 -4.171875l-1.21875 -1.28125l3.4375 0q1.265625 0 1.890625 -0.546875q0.625 -0.546875 0.625 -1.515625q0 -0.96875 -0.625 -1.5q-0.625 -0.546875 -1.890625 -0.546875l-3.4375 0l1.21875 -1.296875l0 6.6875zm15.380188 4.375q-1.390625 0 -2.578125 -0.453125q-1.1875 -0.453125 -2.0625 -1.28125q-0.875 -0.828125 -1.359375 -1.9375q-0.46875 -1.109375 -0.46875 -2.421875q0 -1.3125 0.46875 -2.421875q0.484375 -1.125 1.359375 -1.9375q0.890625 -0.828125 2.0625 -1.28125q1.1875 -0.46875 2.5625 -0.46875q1.390625 0 2.5625 0.46875q1.171875 0.453125 2.03125 1.28125q0.875 0.8125 1.359375 1.921875q0.5 1.109375 0.5 2.4375q0 1.3125 -0.5 2.4375q-0.484375 1.109375 -1.359375 1.9375q-0.859375 0.8125 -2.03125 1.265625q-1.171875 0.453125 -2.546875 0.453125zm-0.015625 -2.328125q0.796875 0 1.453125 -0.265625q0.671875 -0.265625 1.171875 -0.765625q0.5 -0.515625 0.78125 -1.203125q0.28125 -0.6875 0.28125 -1.53125q0 -0.84375 -0.28125 -1.53125q-0.28125 -0.703125 -0.78125 -1.203125q-0.484375 -0.5 -1.15625 -0.765625q-0.671875 -0.28125 -1.46875 -0.28125q-0.796875 0 -1.46875 0.28125q-0.65625 0.265625 -1.171875 0.765625q-0.5 0.5 -0.78125 1.203125q-0.265625 0.6875 -0.265625 1.53125q0 0.828125 0.265625 1.53125q0.28125 0.6875 0.78125 1.203125q0.5 0.5 1.171875 0.765625q0.671875 0.265625 1.46875 0.265625zm8.497421 2.125l0 -11.796875l5.359375 0q1.921875 0 3.390625 0.734375q1.46875 0.734375 2.28125 2.046875q0.828125 1.3125 0.828125 3.125q0 1.78125 -0.828125 3.109375q-0.8125 1.3125 -2.28125 2.046875q-1.46875 0.734375 -3.390625 0.734375l-5.359375 0zm2.734375 -2.234375l2.5 0q1.171875 0 2.03125 -0.453125q0.875 -0.453125 1.359375 -1.265625q0.484375 -0.828125 0.484375 -1.9375q0 -1.140625 -0.484375 -1.953125q-0.484375 -0.8125 -1.359375 -1.25q-0.859375 -0.453125 -2.03125 -0.453125l-2.5 0l0 7.3125zm16.428604 2.4375q-2.515625 0 -3.9375 -1.390625q-1.40625 -1.40625 -1.40625 -4.0l0 -6.609375l2.734375 0l0 6.515625q0 1.671875 0.6875 2.421875q0.6875 0.734375 1.9375 0.734375q1.25 0 1.9375 -0.734375q0.6875 -0.75 0.6875 -2.421875l0 -6.515625l2.6875 0l0 6.609375q0 2.59375 -1.421875 4.0q-1.40625 1.390625 -3.90625 1.390625zm13.679169 0q-1.375 0 -2.546875 -0.4375q-1.171875 -0.453125 -2.03125 -1.28125q-0.859375 -0.828125 -1.34375 -1.9375q-0.46875 -1.109375 -0.46875 -2.4375q0 -1.328125 0.46875 -2.4375q0.484375 -1.125 1.359375 -1.9375q0.875 -0.828125 2.03125 -1.28125q1.15625 -0.453125 2.546875 -0.453125q1.53125 0 2.765625 0.53125q1.234375 0.53125 2.078125 1.5625l-1.75 1.625q-0.609375 -0.703125 -1.359375 -1.046875q-0.734375 -0.34375 -1.609375 -0.34375q-0.828125 0 -1.515625 0.28125q-0.6875 0.265625 -1.203125 0.765625q-0.5 0.5 -0.78125 1.203125q-0.265625 0.6875 -0.265625 1.53125q0 0.84375 0.265625 1.53125q0.28125 0.6875 0.78125 1.203125q0.515625 0.5 1.203125 0.765625q0.6875 0.265625 1.515625 0.265625q0.875 0 1.609375 -0.34375q0.75 -0.34375 1.359375 -1.046875l1.75 1.609375q-0.84375 1.03125 -2.078125 1.578125q-1.234375 0.53125 -2.78125 0.53125zm8.772705 -0.203125l0 -9.5625l-3.78125 0l0 -2.234375l10.28125 0l0 2.234375l-3.78125 0l0 9.5625l-2.71875 0zm11.747086 0.203125q-1.40625 0 -2.703125 -0.375q-1.296875 -0.390625 -2.09375 -0.984375l0.921875 -2.0625q0.765625 0.546875 1.796875 0.890625q1.046875 0.34375 2.09375 0.34375q0.8125 0 1.3125 -0.15625q0.5 -0.171875 0.734375 -0.453125q0.234375 -0.28125 0.234375 -0.65625q0 -0.46875 -0.375 -0.75q-0.359375 -0.28125 -0.96875 -0.453125q-0.609375 -0.171875 -1.34375 -0.328125q-0.734375 -0.171875 -1.46875 -0.40625q-0.734375 -0.234375 -1.34375 -0.609375q-0.59375 -0.375 -0.984375 -0.96875q-0.375 -0.609375 -0.375 -1.5625q0 -1.0 0.546875 -1.828125q0.546875 -0.84375 1.65625 -1.34375q1.109375 -0.5 2.765625 -0.5q1.109375 0 2.1875 0.265625q1.078125 0.265625 1.9062424 0.78125l-0.8437424 2.078125q-0.8125 -0.46875 -1.640625 -0.6875q-0.828125 -0.234375 -1.625 -0.234375q-0.78125 0 -1.296875 0.1875q-0.5 0.171875 -0.71875 0.46875q-0.21875 0.296875 -0.21875 0.6875q0 0.453125 0.359375 0.734375q0.375 0.28125 0.984375 0.453125q0.609375 0.15625 1.34375 0.328125q0.734375 0.171875 1.453125 0.390625q0.734375 0.21875 1.34375 0.59375q0.6093674 0.359375 0.9843674 0.96875q0.390625 0.609375 0.390625 1.53125q0 1.0 -0.5625 1.828125q-0.5625 0.8125 -1.6718674 1.328125q-1.09375 0.5 -2.78125 0.5z" fill-rule="nonzero"/><path fill="#010000" fill-opacity="0.0" d="m129.68172 10.609285l0 0l0 21.452868l0 0l0 -21.452868z" fill-rule="nonzero"/><path fill="#000000" fill-opacity="0.0" d="m12.060354 39.82576l136.25197 0l0 20.440945l-136.25197 0z" fill-rule="evenodd"/><path fill="#5fa8d3" d="m30.690954 39.82576l98.99076 0l0 20.223999l-98.99076 0l0 -20.223999z" fill-rule="nonzero"/><path fill="#000000" fill-opacity="0.0" d="m30.690954 39.700165l98.99076 0l0 20.532589l-98.99076 0l0 -20.532589z" fill-rule="nonzero"/><path fill="#cae9ff" d="m32.08158 56.00496l0 -11.796875l5.109375 0q1.578125 0 2.71875 0.515625q1.15625 0.515625 1.78125 1.484375q0.625 0.953125 0.625 2.28125q0 1.3125 -0.625 2.28125q-0.625 0.953125 -1.78125 1.46875q-1.140625 0.515625 -2.71875 0.515625l-3.59375 0l1.21875 -1.234375l0 4.484375l-2.734375 0zm2.734375 -4.171875l-1.21875 -1.296875l3.4375 0q1.265625 0 1.890625 -0.53125q0.625 -0.546875 0.625 -1.515625q0 -0.96875 -0.625 -1.5q-0.625 -0.546875 -1.890625 -0.546875l-3.4375 0l1.21875 -1.296875l0 6.6875zm9.426758 4.171875l0 -11.796875l5.046875 0q2.453125 0 3.8125 1.140625q1.375 1.140625 1.375 3.140625q0 1.3125 -0.625 2.265625q-0.625 0.953125 -1.78125 1.46875q-1.140625 0.5 -2.71875 0.5l-3.59375 0l1.21875 -1.203125l0 4.484375l-2.734375 0zm7.5 0l-2.9375 -4.28125l2.90625 0l2.984375 4.28125l-2.953125 0zm-4.765625 -4.171875l-1.21875 -1.28125l3.4375 0q1.265625 0 1.890625 -0.546875q0.625 -0.546875 0.625 -1.515625q0 -0.96875 -0.625 -1.5q-0.625 -0.546875 -1.890625 -0.546875l-3.4375 0l1.21875 -1.296875l0 6.6875zm15.380188 4.375q-1.390625 0 -2.578125 -0.453125q-1.1875 -0.453125 -2.0625 -1.28125q-0.875 -0.828125 -1.359375 -1.9375q-0.46875 -1.109375 -0.46875 -2.421875q0 -1.3125 0.46875 -2.421875q0.484375 -1.125 1.359375 -1.9375q0.890625 -0.828125 2.0625 -1.28125q1.1875 -0.46875 2.5625 -0.46875q1.390625 0 2.5625 0.46875q1.171875 0.453125 2.03125 1.28125q0.875 0.8125 1.359375 1.921875q0.5 1.109375 0.5 2.4375q0 1.3125 -0.5 2.4375q-0.484375 1.109375 -1.359375 1.9375q-0.859375 0.8125 -2.03125 1.265625q-1.171875 0.453125 -2.546875 0.453125zm-0.015625 -2.328125q0.796875 0 1.453125 -0.265625q0.671875 -0.265625 1.171875 -0.765625q0.5 -0.515625 0.78125 -1.203125q0.28125 -0.6875 0.28125 -1.53125q0 -0.84375 -0.28125 -1.53125q-0.28125 -0.703125 -0.78125 -1.203125q-0.484375 -0.5 -1.15625 -0.765625q-0.671875 -0.28125 -1.46875 -0.28125q-0.796875 0 -1.46875 0.28125q-0.65625 0.265625 -1.171875 0.765625q-0.5 0.5 -0.78125 1.203125q-0.265625 0.6875 -0.265625 1.53125q0 0.828125 0.265625 1.53125q0.28125 0.6875 0.78125 1.203125q0.5 0.5 1.171875 0.765625q0.671875 0.265625 1.46875 0.265625zm8.497421 2.125l0 -11.796875l5.359375 0q1.921875 0 3.390625 0.734375q1.46875 0.734375 2.28125 2.046875q0.828125 1.3125 0.828125 3.125q0 1.78125 -0.828125 3.109375q-0.8125 1.3125 -2.28125 2.046875q-1.46875 0.734375 -3.390625 0.734375l-5.359375 0zm2.734375 -2.234375l2.5 0q1.171875 0 2.03125 -0.453125q0.875 -0.453125 1.359375 -1.265625q0.484375 -0.828125 0.484375 -1.9375q0 -1.140625 -0.484375 -1.953125q-0.484375 -0.8125 -1.359375 -1.25q-0.859375 -0.453125 -2.03125 -0.453125l-2.5 0l0 7.3125zm16.428604 2.4375q-2.515625 0 -3.9375 -1.390625q-1.40625 -1.40625 -1.40625 -4.0l0 -6.609375l2.734375 0l0 6.515625q0 1.671875 0.6875 2.421875q0.6875 0.734375 1.9375 0.734375q1.25 0 1.9375 -0.734375q0.6875 -0.75 0.6875 -2.421875l0 -6.515625l2.6875 0l0 6.609375q0 2.59375 -1.421875 4.0q-1.40625 1.390625 -3.90625 1.390625zm13.679169 0q-1.375 0 -2.546875 -0.4375q-1.171875 -0.453125 -2.03125 -1.28125q-0.859375 -0.828125 -1.34375 -1.9375q-0.46875 -1.109375 -0.46875 -2.4375q0 -1.328125 0.46875 -2.4375q0.484375 -1.125 1.359375 -1.9375q0.875 -0.828125 2.03125 -1.28125q1.15625 -0.453125 2.546875 -0.453125q1.53125 0 2.765625 0.53125q1.234375 0.53125 2.078125 1.5625l-1.75 1.625q-0.609375 -0.703125 -1.359375 -1.046875q-0.734375 -0.34375 -1.609375 -0.34375q-0.828125 0 -1.515625 0.28125q-0.6875 0.265625 -1.203125 0.765625q-0.5 0.5 -0.78125 1.203125q-0.265625 0.6875 -0.265625 1.53125q0 0.84375 0.265625 1.53125q0.28125 0.6875 0.78125 1.203125q0.515625 0.5 1.203125 0.765625q0.6875 0.265625 1.515625 0.265625q0.875 0 1.609375 -0.34375q0.75 -0.34375 1.359375 -1.046875l1.75 1.609375q-0.84375 1.03125 -2.078125 1.578125q-1.234375 0.53125 -2.78125 0.53125zm8.772705 -0.203125l0 -9.5625l-3.78125 0l0 -2.234375l10.28125 0l0 2.234375l-3.78125 0l0 9.5625l-2.71875 0zm11.747086 0.203125q-1.40625 0 -2.703125 -0.375q-1.296875 -0.390625 -2.09375 -0.984375l0.921875 -2.0625q0.765625 0.546875 1.796875 0.890625q1.046875 0.34375 2.09375 0.34375q0.8125 0 1.3125 -0.15625q0.5 -0.171875 0.734375 -0.453125q0.234375 -0.28125 0.234375 -0.65625q0 -0.46875 -0.375 -0.75q-0.359375 -0.28125 -0.96875 -0.453125q-0.609375 -0.171875 -1.34375 -0.328125q-0.734375 -0.171875 -1.46875 -0.40625q-0.734375 -0.234375 -1.34375 -0.609375q-0.59375 -0.375 -0.984375 -0.96875q-0.375 -0.609375 -0.375 -1.5625q0 -1.0 0.546875 -1.828125q0.546875 -0.84375 1.65625 -1.34375q1.109375 -0.5 2.765625 -0.5q1.109375 0 2.1875 0.265625q1.078125 0.265625 1.9062424 0.78125l-0.8437424 2.078125q-0.8125 -0.46875 -1.640625 -0.6875q-0.828125 -0.234375 -1.625 -0.234375q-0.78125 0 -1.296875 0.1875q-0.5 0.171875 -0.71875 0.46875q-0.21875 0.296875 -0.21875 0.6875q0 0.453125 0.359375 0.734375q0.375 0.28125 0.984375 0.453125q0.609375 0.15625 1.34375 0.328125q0.734375 0.171875 1.453125 0.390625q0.734375 0.21875 1.34375 0.59375q0.6093674 0.359375 0.9843674 0.96875q0.390625 0.609375 0.390625 1.53125q0 1.0 -0.5625 1.828125q-0.5625 0.8125 -1.6718674 1.328125q-1.09375 0.5 -2.78125 0.5z" fill-rule="nonzero"/><path fill="#010000" fill-opacity="0.0" d="m129.68172 39.11595l0 0l0 21.452866l0 0l0 -21.452866z" fill-rule="nonzero"/><path fill="#000000" fill-opacity="0.0" d="m12.060354 68.70397l136.25197 0l0 20.440948l-136.25197 0z" fill-rule="evenodd"/><path fill="#5fa8d3" d="m30.690954 68.70397l98.99076 0l0 20.224007l-98.99076 0l0 -20.224007z" fill-rule="nonzero"/><path fill="#000000" fill-opacity="0.0" d="m30.690954 68.578384l98.99076 0l0 20.532585l-98.99076 0l0 -20.532585z" fill-rule="nonzero"/><path fill="#cae9ff" d="m32.08158 84.88318l0 -11.796875l5.109375 0q1.578125 0 2.71875 0.515625q1.15625 0.515625 1.78125 1.484375q0.625 0.953125 0.625 2.28125q0 1.3125 -0.625 2.28125q-0.625 0.953125 -1.78125 1.46875q-1.140625 0.515625 -2.71875 0.515625l-3.59375 0l1.21875 -1.234375l0 4.484375l-2.734375 0zm2.734375 -4.171875l-1.21875 -1.296875l3.4375 0q1.265625 0 1.890625 -0.53125q0.625 -0.546875 0.625 -1.515625q0 -0.96875 -0.625 -1.5q-0.625 -0.546875 -1.890625 -0.546875l-3.4375 0l1.21875 -1.296875l0 6.6875zm9.426758 4.171875l0 -11.796875l5.046875 0q2.453125 0 3.8125 1.140625q1.375 1.140625 1.375 3.140625q0 1.3125 -0.625 2.265625q-0.625 0.953125 -1.78125 1.46875q-1.140625 0.5 -2.71875 0.5l-3.59375 0l1.21875 -1.203125l0 4.484375l-2.734375 0zm7.5 0l-2.9375 -4.28125l2.90625 0l2.984375 4.28125l-2.953125 0zm-4.765625 -4.171875l-1.21875 -1.28125l3.4375 0q1.265625 0 1.890625 -0.546875q0.625 -0.546875 0.625 -1.515625q0 -0.96875 -0.625 -1.5q-0.625 -0.546875 -1.890625 -0.546875l-3.4375 0l1.21875 -1.296875l0 6.6875zm15.380188 4.375q-1.390625 0 -2.578125 -0.453125q-1.1875 -0.453125 -2.0625 -1.28125q-0.875 -0.828125 -1.359375 -1.9375q-0.46875 -1.109375 -0.46875 -2.421875q0 -1.3125 0.46875 -2.421875q0.484375 -1.125 1.359375 -1.9375q0.890625 -0.828125 2.0625 -1.28125q1.1875 -0.46875 2.5625 -0.46875q1.390625 0 2.5625 0.46875q1.171875 0.453125 2.03125 1.28125q0.875 0.8125 1.359375 1.921875q0.5 1.109375 0.5 2.4375q0 1.3125 -0.5 2.4375q-0.484375 1.109375 -1.359375 1.9375q-0.859375 0.8125 -2.03125 1.265625q-1.171875 0.453125 -2.546875 0.453125zm-0.015625 -2.328125q0.796875 0 1.453125 -0.265625q0.671875 -0.265625 1.171875 -0.765625q0.5 -0.515625 0.78125 -1.203125q0.28125 -0.6875 0.28125 -1.53125q0 -0.84375 -0.28125 -1.53125q-0.28125 -0.703125 -0.78125 -1.203125q-0.484375 -0.5 -1.15625 -0.765625q-0.671875 -0.28125 -1.46875 -0.28125q-0.796875 0 -1.46875 0.28125q-0.65625 0.265625 -1.171875 0.765625q-0.5 0.5 -0.78125 1.203125q-0.265625 0.6875 -0.265625 1.53125q0 0.828125 0.265625 1.53125q0.28125 0.6875 0.78125 1.203125q0.5 0.5 1.171875 0.765625q0.671875 0.265625 1.46875 0.265625zm8.497421 2.125l0 -11.796875l5.359375 0q1.921875 0 3.390625 0.734375q1.46875 0.734375 2.28125 2.046875q0.828125 1.3125 0.828125 3.125q0 1.78125 -0.828125 3.109375q-0.8125 1.3125 -2.28125 2.046875q-1.46875 0.734375 -3.390625 0.734375l-5.359375 0zm2.734375 -2.234375l2.5 0q1.171875 0 2.03125 -0.453125q0.875 -0.453125 1.359375 -1.265625q0.484375 -0.828125 0.484375 -1.9375q0 -1.140625 -0.484375 -1.953125q-0.484375 -0.8125 -1.359375 -1.25q-0.859375 -0.453125 -2.03125 -0.453125l-2.5 0l0 7.3125zm16.428604 2.4375q-2.515625 0 -3.9375 -1.390625q-1.40625 -1.40625 -1.40625 -4.0l0 -6.609375l2.734375 0l0 6.515625q0 1.671875 0.6875 2.421875q0.6875 0.734375 1.9375 0.734375q1.25 0 1.9375 -0.734375q0.6875 -0.75 0.6875 -2.421875l0 -6.515625l2.6875 0l0 6.609375q0 2.59375 -1.421875 4.0q-1.40625 1.390625 -3.90625 1.390625zm13.679169 0q-1.375 0 -2.546875 -0.4375q-1.171875 -0.453125 -2.03125 -1.28125q-0.859375 -0.828125 -1.34375 -1.9375q-0.46875 -1.109375 -0.46875 -2.4375q0 -1.328125 0.46875 -2.4375q0.484375 -1.125 1.359375 -1.9375q0.875 -0.828125 2.03125 -1.28125q1.15625 -0.453125 2.546875 -0.453125q1.53125 0 2.765625 0.53125q1.234375 0.53125 2.078125 1.5625l-1.75 1.625q-0.609375 -0.703125 -1.359375 -1.046875q-0.734375 -0.34375 -1.609375 -0.34375q-0.828125 0 -1.515625 0.28125q-0.6875 0.265625 -1.203125 0.765625q-0.5 0.5 -0.78125 1.203125q-0.265625 0.6875 -0.265625 1.53125q0 0.84375 0.265625 1.53125q0.28125 0.6875 0.78125 1.203125q0.515625 0.5 1.203125 0.765625q0.6875 0.265625 1.515625 0.265625q0.875 0 1.609375 -0.34375q0.75 -0.34375 1.359375 -1.046875l1.75 1.609375q-0.84375 1.03125 -2.078125 1.578125q-1.234375 0.53125 -2.78125 0.53125zm8.772705 -0.203125l0 -9.5625l-3.78125 0l0 -2.234375l10.28125 0l0 2.234375l-3.78125 0l0 9.5625l-2.71875 0zm11.747086 0.203125q-1.40625 0 -2.703125 -0.375q-1.296875 -0.390625 -2.09375 -0.984375l0.921875 -2.0625q0.765625 0.546875 1.796875 0.890625q1.046875 0.34375 2.09375 0.34375q0.8125 0 1.3125 -0.15625q0.5 -0.171875 0.734375 -0.453125q0.234375 -0.28125 0.234375 -0.65625q0 -0.46875 -0.375 -0.75q-0.359375 -0.28125 -0.96875 -0.453125q-0.609375 -0.171875 -1.34375 -0.328125q-0.734375 -0.171875 -1.46875 -0.40625q-0.734375 -0.234375 -1.34375 -0.609375q-0.59375 -0.375 -0.984375 -0.96875q-0.375 -0.609375 -0.375 -1.5625q0 -1.0 0.546875 -1.828125q0.546875 -0.84375 1.65625 -1.34375q1.109375 -0.5 2.765625 -0.5q1.109375 0 2.1875 0.265625q1.078125 0.265625 1.9062424 0.78125l-0.8437424 2.078125q-0.8125 -0.46875 -1.640625 -0.6875q-0.828125 -0.234375 -1.625 -0.234375q-0.78125 0 -1.296875 0.1875q-0.5 0.171875 -0.71875 0.46875q-0.21875 0.296875 -0.21875 0.6875q0 0.453125 0.359375 0.734375q0.375 0.28125 0.984375 0.453125q0.609375 0.15625 1.34375 0.328125q0.734375 0.171875 1.453125 0.390625q0.734375 0.21875 1.34375 0.59375q0.6093674 0.359375 0.9843674 0.96875q0.390625 0.609375 0.390625 1.53125q0 1.0 -0.5625 1.828125q-0.5625 0.8125 -1.6718674 1.328125q-1.09375 0.5 -2.78125 0.5z" fill-rule="nonzero"/><path fill="#010000" fill-opacity="0.0" d="m129.68172 67.99417l0 0l0 21.452866l0 0l0 -21.452866z" fill-rule="nonzero"/><path fill="#000000" fill-opacity="0.0" d="m180.65416 11.1332655l136.25197 0l0 20.440945l-136.25197 0z" fill-rule="evenodd"/><path fill="#5fa8d3" d="m199.28476 11.1332655l98.99078 0l0 20.223999l-98.99078 0l0 -20.223999z" fill-rule="nonzero"/><path fill="#000000" fill-opacity="0.0" d="m199.28476 11.007672l98.99078 0l0 20.532585l-98.99078 0l0 -20.532585z" fill-rule="nonzero"/><path fill="#cae9ff" d="m200.67538 27.312466l0 -11.796874l5.109375 0q1.578125 0 2.71875 0.51562405q1.15625 0.515625 1.78125 1.484375q0.625 0.953125 0.625 2.28125q0 1.3125 -0.625 2.28125q-0.625 0.953125 -1.78125 1.46875q-1.140625 0.515625 -2.71875 0.515625l-3.59375 0l1.21875 -1.234375l0 4.484375l-2.734375 0zm2.734375 -4.171875l-1.21875 -1.296875l3.4375 0q1.265625 0 1.890625 -0.53125q0.625 -0.546875 0.625 -1.515625q0 -0.96875 -0.625 -1.5q-0.625 -0.546875 -1.890625 -0.546875l-3.4375 0l1.21875 -1.296875l0 6.6875zm9.426758 4.171875l0 -11.796874l5.046875 0q2.453125 0 3.8125 1.140624q1.375 1.140625 1.375 3.140625q0 1.3125 -0.625 2.265625q-0.625 0.953125 -1.78125 1.46875q-1.140625 0.5 -2.71875 0.5l-3.59375 0l1.21875 -1.203125l0 4.484375l-2.734375 0zm7.5 0l-2.9375 -4.28125l2.90625 0l2.984375 4.28125l-2.953125 0zm-4.765625 -4.171875l-1.21875 -1.28125l3.4375 0q1.265625 0 1.890625 -0.546875q0.625 -0.546875 0.625 -1.515625q0 -0.96875 -0.625 -1.5q-0.625 -0.546875 -1.890625 -0.546875l-3.4375 0l1.21875 -1.296875l0 6.6875zm15.380188 4.375q-1.390625 0 -2.578125 -0.453125q-1.1875 -0.453125 -2.0625 -1.28125q-0.875 -0.828125 -1.359375 -1.9375q-0.46875 -1.109375 -0.46875 -2.421875q0 -1.3125 0.46875 -2.421875q0.484375 -1.125 1.359375 -1.9375q0.890625 -0.828125 2.0625 -1.281249q1.1875 -0.46875 2.5625 -0.46875q1.390625 0 2.5625 0.46875q1.171875 0.45312405 2.03125 1.281249q0.875 0.8125 1.359375 1.921875q0.5 1.109375 0.5 2.4375q0 1.3125 -0.5 2.4375q-0.484375 1.109375 -1.359375 1.9375q-0.859375 0.8125 -2.03125 1.265625q-1.171875 0.453125 -2.546875 0.453125zm-0.015625 -2.328125q0.796875 0 1.453125 -0.265625q0.671875 -0.265625 1.171875 -0.765625q0.5 -0.515625 0.78125 -1.203125q0.28125 -0.6875 0.28125 -1.53125q0 -0.84375 -0.28125 -1.53125q-0.28125 -0.703125 -0.78125 -1.203125q-0.484375 -0.5 -1.15625 -0.765625q-0.671875 -0.28125 -1.46875 -0.28125q-0.796875 0 -1.46875 0.28125q-0.65625 0.265625 -1.171875 0.765625q-0.5 0.5 -0.78125 1.203125q-0.265625 0.6875 -0.265625 1.53125q0 0.828125 0.265625 1.53125q0.28125 0.6875 0.78125 1.203125q0.5 0.5 1.171875 0.765625q0.671875 0.265625 1.46875 0.265625zm8.497421 2.125l0 -11.796874l5.359375 0q1.921875 0 3.390625 0.73437405q1.46875 0.734375 2.28125 2.046875q0.828125 1.3125 0.828125 3.125q0 1.78125 -0.828125 3.109375q-0.8125 1.3125 -2.28125 2.046875q-1.46875 0.734375 -3.390625 0.734375l-5.359375 0zm2.734375 -2.234375l2.5 0q1.171875 0 2.03125 -0.453125q0.875 -0.453125 1.359375 -1.265625q0.484375 -0.828125 0.484375 -1.9375q0 -1.140625 -0.484375 -1.953125q-0.484375 -0.8125 -1.359375 -1.25q-0.859375 -0.453125 -2.03125 -0.453125l-2.5 0l0 7.3125zm16.428604 2.4375q-2.515625 0 -3.9375 -1.390625q-1.40625 -1.40625 -1.40625 -4.0l0 -6.609374l2.734375 0l0 6.515624q0 1.671875 0.6875 2.421875q0.6875 0.734375 1.9375 0.734375q1.25 0 1.9375 -0.734375q0.6875 -0.75 0.6875 -2.421875l0 -6.515624l2.6875 0l0 6.609374q0 2.59375 -1.421875 4.0q-1.40625 1.390625 -3.90625 1.390625zm13.679169 0q-1.375 0 -2.546875 -0.4375q-1.171875 -0.453125 -2.03125 -1.28125q-0.859375 -0.828125 -1.34375 -1.9375q-0.46875 -1.109375 -0.46875 -2.4375q0 -1.328125 0.46875 -2.4375q0.484375 -1.125 1.359375 -1.9375q0.875 -0.828125 2.03125 -1.281249q1.15625 -0.453125 2.546875 -0.453125q1.53125 0 2.765625 0.53125q1.234375 0.53124905 2.078125 1.562499l-1.75 1.625q-0.609375 -0.703125 -1.359375 -1.046875q-0.734375 -0.34375 -1.609375 -0.34375q-0.828125 0 -1.515625 0.28125q-0.6875 0.265625 -1.203125 0.765625q-0.5 0.5 -0.78125 1.203125q-0.265625 0.6875 -0.265625 1.53125q0 0.84375 0.265625 1.53125q0.28125 0.6875 0.78125 1.203125q0.515625 0.5 1.203125 0.765625q0.6875 0.265625 1.515625 0.265625q0.875 0 1.609375 -0.34375q0.75 -0.34375 1.359375 -1.046875l1.75 1.609375q-0.84375 1.03125 -2.078125 1.578125q-1.234375 0.53125 -2.78125 0.53125zm8.772705 -0.203125l0 -9.5625l-3.78125 0l0 -2.234374l10.28125 0l0 2.234374l-3.78125 0l0 9.5625l-2.71875 0zm11.747101 0.203125q-1.40625 0 -2.703125 -0.375q-1.296875 -0.390625 -2.09375 -0.984375l0.921875 -2.0625q0.765625 0.546875 1.796875 0.890625q1.046875 0.34375 2.09375 0.34375q0.8125 0 1.3125 -0.15625q0.5 -0.171875 0.734375 -0.453125q0.234375 -0.28125 0.234375 -0.65625q0 -0.46875 -0.375 -0.75q-0.359375 -0.28125 -0.96875 -0.453125q-0.609375 -0.171875 -1.34375 -0.328125q-0.734375 -0.171875 -1.46875 -0.40625q-0.734375 -0.234375 -1.34375 -0.609375q-0.59375 -0.375 -0.984375 -0.96875q-0.375 -0.609375 -0.375 -1.5625q0 -1.0 0.546875 -1.828125q0.546875 -0.84375 1.65625 -1.343749q1.109375 -0.5 2.765625 -0.5q1.109375 0 2.1875 0.265625q1.078125 0.265625 1.90625 0.78124905l-0.84375 2.078125q-0.8125 -0.46875 -1.640625 -0.6875q-0.828125 -0.234375 -1.625 -0.234375q-0.78125 0 -1.296875 0.1875q-0.5 0.171875 -0.71875 0.46875q-0.21875 0.296875 -0.21875 0.6875q0 0.453125 0.359375 0.734375q0.375 0.28125 0.984375 0.453125q0.609375 0.15625 1.34375 0.328125q0.734375 0.171875 1.453125 0.390625q0.734375 0.21875 1.34375 0.59375q0.609375 0.359375 0.984375 0.96875q0.390625 0.609375 0.390625 1.53125q0 1.0 -0.5625 1.828125q-0.5625 0.8125 -1.671875 1.328125q-1.09375 0.5 -2.78125 0.5z" fill-rule="nonzero"/><path fill="#010000" fill-opacity="0.0" d="m298.27554 10.423459l0 0l0 21.452866l0 0l0 -21.452866z" fill-rule="nonzero"/><path fill="#000000" fill-opacity="0.0" d="m180.65416 39.63993l136.25197 0l0 20.440945l-136.25197 0z" fill-rule="evenodd"/><path fill="#5fa8d3" d="m199.28476 39.63993l98.99078 0l0 20.224003l-98.99078 0l0 -20.224003z" fill-rule="nonzero"/><path fill="#000000" fill-opacity="0.0" d="m199.28476 39.51434l98.99078 0l0 20.532585l-98.99078 0l0 -20.532585z" fill-rule="nonzero"/><path fill="#cae9ff" d="m200.67538 55.819134l0 -11.796875l5.109375 0q1.578125 0 2.71875 0.515625q1.15625 0.515625 1.78125 1.484375q0.625 0.953125 0.625 2.28125q0 1.3125 -0.625 2.28125q-0.625 0.953125 -1.78125 1.46875q-1.140625 0.515625 -2.71875 0.515625l-3.59375 0l1.21875 -1.234375l0 4.484375l-2.734375 0zm2.734375 -4.171875l-1.21875 -1.296875l3.4375 0q1.265625 0 1.890625 -0.53125q0.625 -0.546875 0.625 -1.515625q0 -0.96875 -0.625 -1.5q-0.625 -0.546875 -1.890625 -0.546875l-3.4375 0l1.21875 -1.296875l0 6.6875zm9.426758 4.171875l0 -11.796875l5.046875 0q2.453125 0 3.8125 1.140625q1.375 1.140625 1.375 3.140625q0 1.3125 -0.625 2.265625q-0.625 0.953125 -1.78125 1.46875q-1.140625 0.5 -2.71875 0.5l-3.59375 0l1.21875 -1.203125l0 4.484375l-2.734375 0zm7.5 0l-2.9375 -4.28125l2.90625 0l2.984375 4.28125l-2.953125 0zm-4.765625 -4.171875l-1.21875 -1.28125l3.4375 0q1.265625 0 1.890625 -0.546875q0.625 -0.546875 0.625 -1.515625q0 -0.96875 -0.625 -1.5q-0.625 -0.546875 -1.890625 -0.546875l-3.4375 0l1.21875 -1.296875l0 6.6875zm15.380188 4.375q-1.390625 0 -2.578125 -0.453125q-1.1875 -0.453125 -2.0625 -1.28125q-0.875 -0.828125 -1.359375 -1.9375q-0.46875 -1.109375 -0.46875 -2.421875q0 -1.3125 0.46875 -2.421875q0.484375 -1.125 1.359375 -1.9375q0.890625 -0.828125 2.0625 -1.28125q1.1875 -0.46875 2.5625 -0.46875q1.390625 0 2.5625 0.46875q1.171875 0.453125 2.03125 1.28125q0.875 0.8125 1.359375 1.921875q0.5 1.109375 0.5 2.4375q0 1.3125 -0.5 2.4375q-0.484375 1.109375 -1.359375 1.9375q-0.859375 0.8125 -2.03125 1.265625q-1.171875 0.453125 -2.546875 0.453125zm-0.015625 -2.328125q0.796875 0 1.453125 -0.265625q0.671875 -0.265625 1.171875 -0.765625q0.5 -0.515625 0.78125 -1.203125q0.28125 -0.6875 0.28125 -1.53125q0 -0.84375 -0.28125 -1.53125q-0.28125 -0.703125 -0.78125 -1.203125q-0.484375 -0.5 -1.15625 -0.765625q-0.671875 -0.28125 -1.46875 -0.28125q-0.796875 0 -1.46875 0.28125q-0.65625 0.265625 -1.171875 0.765625q-0.5 0.5 -0.78125 1.203125q-0.265625 0.6875 -0.265625 1.53125q0 0.828125 0.265625 1.53125q0.28125 0.6875 0.78125 1.203125q0.5 0.5 1.171875 0.765625q0.671875 0.265625 1.46875 0.265625zm8.497421 2.125l0 -11.796875l5.359375 0q1.921875 0 3.390625 0.734375q1.46875 0.734375 2.28125 2.046875q0.828125 1.3125 0.828125 3.125q0 1.78125 -0.828125 3.109375q-0.8125 1.3125 -2.28125 2.046875q-1.46875 0.734375 -3.390625 0.734375l-5.359375 0zm2.734375 -2.234375l2.5 0q1.171875 0 2.03125 -0.453125q0.875 -0.453125 1.359375 -1.265625q0.484375 -0.828125 0.484375 -1.9375q0 -1.140625 -0.484375 -1.953125q-0.484375 -0.8125 -1.359375 -1.25q-0.859375 -0.453125 -2.03125 -0.453125l-2.5 0l0 7.3125zm16.428604 2.4375q-2.515625 0 -3.9375 -1.390625q-1.40625 -1.40625 -1.40625 -4.0l0 -6.609375l2.734375 0l0 6.515625q0 1.671875 0.6875 2.421875q0.6875 0.734375 1.9375 0.734375q1.25 0 1.9375 -0.734375q0.6875 -0.75 0.6875 -2.421875l0 -6.515625l2.6875 0l0 6.609375q0 2.59375 -1.421875 4.0q-1.40625 1.390625 -3.90625 1.390625zm13.679169 0q-1.375 0 -2.546875 -0.4375q-1.171875 -0.453125 -2.03125 -1.28125q-0.859375 -0.828125 -1.34375 -1.9375q-0.46875 -1.109375 -0.46875 -2.4375q0 -1.328125 0.46875 -2.4375q0.484375 -1.125 1.359375 -1.9375q0.875 -0.828125 2.03125 -1.28125q1.15625 -0.453125 2.546875 -0.453125q1.53125 0 2.765625 0.53125q1.234375 0.53125 2.078125 1.5625l-1.75 1.625q-0.609375 -0.703125 -1.359375 -1.046875q-0.734375 -0.34375 -1.609375 -0.34375q-0.828125 0 -1.515625 0.28125q-0.6875 0.265625 -1.203125 0.765625q-0.5 0.5 -0.78125 1.203125q-0.265625 0.6875 -0.265625 1.53125q0 0.84375 0.265625 1.53125q0.28125 0.6875 0.78125 1.203125q0.515625 0.5 1.203125 0.765625q0.6875 0.265625 1.515625 0.265625q0.875 0 1.609375 -0.34375q0.75 -0.34375 1.359375 -1.046875l1.75 1.609375q-0.84375 1.03125 -2.078125 1.578125q-1.234375 0.53125 -2.78125 0.53125zm8.772705 -0.203125l0 -9.5625l-3.78125 0l0 -2.234375l10.28125 0l0 2.234375l-3.78125 0l0 9.5625l-2.71875 0zm11.747101 0.203125q-1.40625 0 -2.703125 -0.375q-1.296875 -0.390625 -2.09375 -0.984375l0.921875 -2.0625q0.765625 0.546875 1.796875 0.890625q1.046875 0.34375 2.09375 0.34375q0.8125 0 1.3125 -0.15625q0.5 -0.171875 0.734375 -0.453125q0.234375 -0.28125 0.234375 -0.65625q0 -0.46875 -0.375 -0.75q-0.359375 -0.28125 -0.96875 -0.453125q-0.609375 -0.171875 -1.34375 -0.328125q-0.734375 -0.171875 -1.46875 -0.40625q-0.734375 -0.234375 -1.34375 -0.609375q-0.59375 -0.375 -0.984375 -0.96875q-0.375 -0.609375 -0.375 -1.5625q0 -1.0 0.546875 -1.828125q0.546875 -0.84375 1.65625 -1.34375q1.109375 -0.5 2.765625 -0.5q1.109375 0 2.1875 0.265625q1.078125 0.265625 1.90625 0.78125l-0.84375 2.078125q-0.8125 -0.46875 -1.640625 -0.6875q-0.828125 -0.234375 -1.625 -0.234375q-0.78125 0 -1.296875 0.1875q-0.5 0.171875 -0.71875 0.46875q-0.21875 0.296875 -0.21875 0.6875q0 0.453125 0.359375 0.734375q0.375 0.28125 0.984375 0.453125q0.609375 0.15625 1.34375 0.328125q0.734375 0.171875 1.453125 0.390625q0.734375 0.21875 1.34375 0.59375q0.609375 0.359375 0.984375 0.96875q0.390625 0.609375 0.390625 1.53125q0 1.0 -0.5625 1.828125q-0.5625 0.8125 -1.671875 1.328125q-1.09375 0.5 -2.78125 0.5z" fill-rule="nonzero"/><path fill="#010000" fill-opacity="0.0" d="m298.27554 38.930126l0 0l0 21.452866l0 0l0 -21.452866z" fill-rule="nonzero"/><path fill="#000000" fill-opacity="0.0" d="m180.65416 68.51815l136.25197 0l0 20.44094l-136.25197 0z" fill-rule="evenodd"/><path fill="#5fa8d3" d="m199.28476 68.51815l98.99078 0l0 20.223999l-98.99078 0l0 -20.223999z" fill-rule="nonzero"/><path fill="#000000" fill-opacity="0.0" d="m199.28476 68.392555l98.99078 0l0 20.532585l-98.99078 0l0 -20.532585z" fill-rule="nonzero"/><path fill="#cae9ff" d="m200.67538 84.69735l0 -11.796875l5.109375 0q1.578125 0 2.71875 0.515625q1.15625 0.515625 1.78125 1.484375q0.625 0.953125 0.625 2.28125q0 1.3125 -0.625 2.28125q-0.625 0.953125 -1.78125 1.46875q-1.140625 0.515625 -2.71875 0.515625l-3.59375 0l1.21875 -1.234375l0 4.484375l-2.734375 0zm2.734375 -4.171875l-1.21875 -1.296875l3.4375 0q1.265625 0 1.890625 -0.53125q0.625 -0.546875 0.625 -1.515625q0 -0.96875 -0.625 -1.5q-0.625 -0.546875 -1.890625 -0.546875l-3.4375 0l1.21875 -1.296875l0 6.6875zm9.426758 4.171875l0 -11.796875l5.046875 0q2.453125 0 3.8125 1.140625q1.375 1.140625 1.375 3.140625q0 1.3125 -0.625 2.265625q-0.625 0.953125 -1.78125 1.46875q-1.140625 0.5 -2.71875 0.5l-3.59375 0l1.21875 -1.203125l0 4.484375l-2.734375 0zm7.5 0l-2.9375 -4.28125l2.90625 0l2.984375 4.28125l-2.953125 0zm-4.765625 -4.171875l-1.21875 -1.28125l3.4375 0q1.265625 0 1.890625 -0.546875q0.625 -0.546875 0.625 -1.515625q0 -0.96875 -0.625 -1.5q-0.625 -0.546875 -1.890625 -0.546875l-3.4375 0l1.21875 -1.296875l0 6.6875zm15.380188 4.375q-1.390625 0 -2.578125 -0.453125q-1.1875 -0.453125 -2.0625 -1.28125q-0.875 -0.828125 -1.359375 -1.9375q-0.46875 -1.109375 -0.46875 -2.421875q0 -1.3125 0.46875 -2.421875q0.484375 -1.125 1.359375 -1.9375q0.890625 -0.828125 2.0625 -1.28125q1.1875 -0.46875 2.5625 -0.46875q1.390625 0 2.5625 0.46875q1.171875 0.453125 2.03125 1.28125q0.875 0.8125 1.359375 1.921875q0.5 1.109375 0.5 2.4375q0 1.3125 -0.5 2.4375q-0.484375 1.109375 -1.359375 1.9375q-0.859375 0.8125 -2.03125 1.265625q-1.171875 0.453125 -2.546875 0.453125zm-0.015625 -2.328125q0.796875 0 1.453125 -0.265625q0.671875 -0.265625 1.171875 -0.765625q0.5 -0.515625 0.78125 -1.203125q0.28125 -0.6875 0.28125 -1.53125q0 -0.84375 -0.28125 -1.53125q-0.28125 -0.703125 -0.78125 -1.203125q-0.484375 -0.5 -1.15625 -0.765625q-0.671875 -0.28125 -1.46875 -0.28125q-0.796875 0 -1.46875 0.28125q-0.65625 0.265625 -1.171875 0.765625q-0.5 0.5 -0.78125 1.203125q-0.265625 0.6875 -0.265625 1.53125q0 0.828125 0.265625 1.53125q0.28125 0.6875 0.78125 1.203125q0.5 0.5 1.171875 0.765625q0.671875 0.265625 1.46875 0.265625zm8.497421 2.125l0 -11.796875l5.359375 0q1.921875 0 3.390625 0.734375q1.46875 0.734375 2.28125 2.046875q0.828125 1.3125 0.828125 3.125q0 1.78125 -0.828125 3.109375q-0.8125 1.3125 -2.28125 2.046875q-1.46875 0.734375 -3.390625 0.734375l-5.359375 0zm2.734375 -2.234375l2.5 0q1.171875 0 2.03125 -0.453125q0.875 -0.453125 1.359375 -1.265625q0.484375 -0.828125 0.484375 -1.9375q0 -1.140625 -0.484375 -1.953125q-0.484375 -0.8125 -1.359375 -1.25q-0.859375 -0.453125 -2.03125 -0.453125l-2.5 0l0 7.3125zm16.428604 2.4375q-2.515625 0 -3.9375 -1.390625q-1.40625 -1.40625 -1.40625 -4.0l0 -6.609375l2.734375 0l0 6.515625q0 1.671875 0.6875 2.421875q0.6875 0.734375 1.9375 0.734375q1.25 0 1.9375 -0.734375q0.6875 -0.75 0.6875 -2.421875l0 -6.515625l2.6875 0l0 6.609375q0 2.59375 -1.421875 4.0q-1.40625 1.390625 -3.90625 1.390625zm13.679169 0q-1.375 0 -2.546875 -0.4375q-1.171875 -0.453125 -2.03125 -1.28125q-0.859375 -0.828125 -1.34375 -1.9375q-0.46875 -1.109375 -0.46875 -2.4375q0 -1.328125 0.46875 -2.4375q0.484375 -1.125 1.359375 -1.9375q0.875 -0.828125 2.03125 -1.28125q1.15625 -0.453125 2.546875 -0.453125q1.53125 0 2.765625 0.53125q1.234375 0.53125 2.078125 1.5625l-1.75 1.625q-0.609375 -0.703125 -1.359375 -1.046875q-0.734375 -0.34375 -1.609375 -0.34375q-0.828125 0 -1.515625 0.28125q-0.6875 0.265625 -1.203125 0.765625q-0.5 0.5 -0.78125 1.203125q-0.265625 0.6875 -0.265625 1.53125q0 0.84375 0.265625 1.53125q0.28125 0.6875 0.78125 1.203125q0.515625 0.5 1.203125 0.765625q0.6875 0.265625 1.515625 0.265625q0.875 0 1.609375 -0.34375q0.75 -0.34375 1.359375 -1.046875l1.75 1.609375q-0.84375 1.03125 -2.078125 1.578125q-1.234375 0.53125 -2.78125 0.53125zm8.772705 -0.203125l0 -9.5625l-3.78125 0l0 -2.234375l10.28125 0l0 2.234375l-3.78125 0l0 9.5625l-2.71875 0zm11.747101 0.203125q-1.40625 0 -2.703125 -0.375q-1.296875 -0.390625 -2.09375 -0.984375l0.921875 -2.0625q0.765625 0.546875 1.796875 0.890625q1.046875 0.34375 2.09375 0.34375q0.8125 0 1.3125 -0.15625q0.5 -0.171875 0.734375 -0.453125q0.234375 -0.28125 0.234375 -0.65625q0 -0.46875 -0.375 -0.75q-0.359375 -0.28125 -0.96875 -0.453125q-0.609375 -0.171875 -1.34375 -0.328125q-0.734375 -0.171875 -1.46875 -0.40625q-0.734375 -0.234375 -1.34375 -0.609375q-0.59375 -0.375 -0.984375 -0.96875q-0.375 -0.609375 -0.375 -1.5625q0 -1.0 0.546875 -1.828125q0.546875 -0.84375 1.65625 -1.34375q1.109375 -0.5 2.765625 -0.5q1.109375 0 2.1875 0.265625q1.078125 0.265625 1.90625 0.78125l-0.84375 2.078125q-0.8125 -0.46875 -1.640625 -0.6875q-0.828125 -0.234375 -1.625 -0.234375q-0.78125 0 -1.296875 0.1875q-0.5 0.171875 -0.71875 0.46875q-0.21875 0.296875 -0.21875 0.6875q0 0.453125 0.359375 0.734375q0.375 0.28125 0.984375 0.453125q0.609375 0.15625 1.34375 0.328125q0.734375 0.171875 1.453125 0.390625q0.734375 0.21875 1.34375 0.59375q0.609375 0.359375 0.984375 0.96875q0.390625 0.609375 0.390625 1.53125q0 1.0 -0.5625 1.828125q-0.5625 0.8125 -1.671875 1.328125q-1.09375 0.5 -2.78125 0.5z" fill-rule="nonzero"/><path fill="#010000" fill-opacity="0.0" d="m298.27554 67.80834l0 0l0 21.452866l0 0l0 -21.452866z" fill-rule="nonzero"/><path fill="#000000" fill-opacity="0.0" d="m349.24786 11.040352l136.25195 0l0 20.440945l-136.25195 0z" fill-rule="evenodd"/><path fill="#5fa8d3" d="m367.87845 11.040352l98.99078 0l0 20.224l-98.99078 0l0 -20.224z" fill-rule="nonzero"/><path fill="#000000" fill-opacity="0.0" d="m367.87845 10.914759l98.99078 0l0 20.532587l-98.99078 0l0 -20.532587z" fill-rule="nonzero"/><path fill="#cae9ff" d="m369.26907 27.219553l0 -11.796875l5.109375 0q1.578125 0 2.71875 0.515625q1.15625 0.515625 1.78125 1.484375q0.625 0.953125 0.625 2.28125q0 1.3125 -0.625 2.28125q-0.625 0.953125 -1.78125 1.46875q-1.140625 0.515625 -2.71875 0.515625l-3.59375 0l1.21875 -1.234375l0 4.484375l-2.734375 0zm2.734375 -4.171875l-1.21875 -1.296875l3.4375 0q1.265625 0 1.890625 -0.53125q0.625 -0.546875 0.625 -1.515625q0 -0.96875 -0.625 -1.5q-0.625 -0.546875 -1.890625 -0.546875l-3.4375 0l1.21875 -1.296875l0 6.6875zm9.426758 4.171875l0 -11.796875l5.046875 0q2.453125 0 3.8125 1.140625q1.375 1.140625 1.375 3.140625q0 1.3125 -0.625 2.265625q-0.625 0.953125 -1.78125 1.46875q-1.140625 0.5 -2.71875 0.5l-3.59375 0l1.21875 -1.203125l0 4.484375l-2.734375 0zm7.5 0l-2.9375 -4.28125l2.90625 0l2.984375 4.28125l-2.953125 0zm-4.765625 -4.171875l-1.21875 -1.28125l3.4375 0q1.265625 0 1.890625 -0.546875q0.625 -0.546875 0.625 -1.515625q0 -0.96875 -0.625 -1.5q-0.625 -0.546875 -1.890625 -0.546875l-3.4375 0l1.21875 -1.296875l0 6.6875zm15.380188 4.375q-1.390625 0 -2.578125 -0.453125q-1.1875 -0.453125 -2.0625 -1.28125q-0.875 -0.828125 -1.359375 -1.9375q-0.46875 -1.109375 -0.46875 -2.421875q0 -1.3125 0.46875 -2.421875q0.484375 -1.125 1.359375 -1.9375q0.890625 -0.828125 2.0625 -1.28125q1.1875 -0.46875 2.5625 -0.46875q1.390625 0 2.5625 0.46875q1.171875 0.453125 2.03125 1.28125q0.875 0.8125 1.359375 1.921875q0.5 1.109375 0.5 2.4375q0 1.3125 -0.5 2.4375q-0.484375 1.109375 -1.359375 1.9375q-0.859375 0.8125 -2.03125 1.265625q-1.171875 0.453125 -2.546875 0.453125zm-0.015625 -2.328125q0.796875 0 1.453125 -0.265625q0.671875 -0.265625 1.171875 -0.765625q0.5 -0.515625 0.78125 -1.203125q0.28125 -0.6875 0.28125 -1.53125q0 -0.84375 -0.28125 -1.53125q-0.28125 -0.703125 -0.78125 -1.203125q-0.484375 -0.5 -1.15625 -0.765625q-0.671875 -0.28125 -1.46875 -0.28125q-0.796875 0 -1.46875 0.28125q-0.65625 0.265625 -1.171875 0.765625q-0.5 0.5 -0.78125 1.203125q-0.265625 0.6875 -0.265625 1.53125q0 0.828125 0.265625 1.53125q0.28125 0.6875 0.78125 1.203125q0.5 0.5 1.171875 0.765625q0.671875 0.265625 1.46875 0.265625zm8.497437 2.125l0 -11.796875l5.359375 0q1.921875 0 3.390625 0.734375q1.46875 0.734375 2.28125 2.046875q0.828125 1.3125 0.828125 3.125q0 1.78125 -0.828125 3.109375q-0.8125 1.3125 -2.28125 2.046875q-1.46875 0.734375 -3.390625 0.734375l-5.359375 0zm2.734375 -2.234375l2.5 0q1.171875 0 2.03125 -0.453125q0.875 -0.453125 1.359375 -1.265625q0.484375 -0.828125 0.484375 -1.9375q0 -1.140625 -0.484375 -1.953125q-0.484375 -0.8125 -1.359375 -1.25q-0.859375 -0.453125 -2.03125 -0.453125l-2.5 0l0 7.3125zm16.428589 2.4375q-2.515625 0 -3.9375 -1.390625q-1.40625 -1.40625 -1.40625 -4.0l0 -6.609375l2.734375 0l0 6.515625q0 1.671875 0.6875 2.421875q0.6875 0.734375 1.9375 0.734375q1.25 0 1.9375 -0.734375q0.6875 -0.75 0.6875 -2.421875l0 -6.515625l2.6875 0l0 6.609375q0 2.59375 -1.421875 4.0q-1.40625 1.390625 -3.90625 1.390625zm13.679169 0q-1.375 0 -2.546875 -0.4375q-1.171875 -0.453125 -2.03125 -1.28125q-0.859375 -0.828125 -1.34375 -1.9375q-0.46875 -1.109375 -0.46875 -2.4375q0 -1.328125 0.46875 -2.4375q0.484375 -1.125 1.359375 -1.9375q0.875 -0.828125 2.03125 -1.28125q1.15625 -0.453125 2.546875 -0.453125q1.53125 0 2.765625 0.53125q1.234375 0.53125 2.078125 1.5625l-1.75 1.625q-0.609375 -0.703125 -1.359375 -1.046875q-0.734375 -0.34375 -1.609375 -0.34375q-0.828125 0 -1.515625 0.28125q-0.6875 0.265625 -1.203125 0.765625q-0.5 0.5 -0.78125 1.203125q-0.265625 0.6875 -0.265625 1.53125q0 0.84375 0.265625 1.53125q0.28125 0.6875 0.78125 1.203125q0.515625 0.5 1.203125 0.765625q0.6875 0.265625 1.515625 0.265625q0.875 0 1.609375 -0.34375q0.75 -0.34375 1.359375 -1.046875l1.75 1.609375q-0.84375 1.03125 -2.078125 1.578125q-1.234375 0.53125 -2.78125 0.53125zm8.772705 -0.203125l0 -9.5625l-3.78125 0l0 -2.234375l10.28125 0l0 2.234375l-3.78125 0l0 9.5625l-2.71875 0zm11.747101 0.203125q-1.40625 0 -2.703125 -0.375q-1.296875 -0.390625 -2.09375 -0.984375l0.921875 -2.0625q0.765625 0.546875 1.796875 0.890625q1.046875 0.34375 2.09375 0.34375q0.8125 0 1.3125 -0.15625q0.5 -0.171875 0.734375 -0.453125q0.234375 -0.28125 0.234375 -0.65625q0 -0.46875 -0.375 -0.75q-0.359375 -0.28125 -0.96875 -0.453125q-0.609375 -0.171875 -1.34375 -0.328125q-0.734375 -0.171875 -1.46875 -0.40625q-0.734375 -0.234375 -1.34375 -0.609375q-0.59375 -0.375 -0.984375 -0.96875q-0.375 -0.609375 -0.375 -1.5625q0 -1.0 0.546875 -1.828125q0.546875 -0.84375 1.65625 -1.34375q1.109375 -0.5 2.765625 -0.5q1.109375 0 2.1875 0.265625q1.078125 0.265625 1.90625 0.78125l-0.84375 2.078125q-0.8125 -0.46875 -1.640625 -0.6875q-0.828125 -0.234375 -1.625 -0.234375q-0.78125 0 -1.296875 0.1875q-0.5 0.171875 -0.71875 0.46875q-0.21875 0.296875 -0.21875 0.6875q0 0.453125 0.359375 0.734375q0.375 0.28125 0.984375 0.453125q0.609375 0.15625 1.34375 0.328125q0.734375 0.171875 1.453125 0.390625q0.734375 0.21875 1.34375 0.59375q0.609375 0.359375 0.984375 0.96875q0.390625 0.609375 0.390625 1.53125q0 1.0 -0.5625 1.828125q-0.5625 0.8125 -1.671875 1.328125q-1.09375 0.5 -2.78125 0.5z" fill-rule="nonzero"/><path fill="#010000" fill-opacity="0.0" d="m466.86923 10.330545l0 0l0 21.452866l0 0l0 -21.452866z" fill-rule="nonzero"/><path fill="#000000" fill-opacity="0.0" d="m349.24786 39.54702l136.25195 0l0 20.440945l-136.25195 0z" fill-rule="evenodd"/><path fill="#5fa8d3" d="m367.87845 39.54702l98.99078 0l0 20.223999l-98.99078 0l0 -20.223999z" fill-rule="nonzero"/><path fill="#000000" fill-opacity="0.0" d="m367.87845 39.421425l98.99078 0l0 20.532589l-98.99078 0l0 -20.532589z" fill-rule="nonzero"/><path fill="#cae9ff" d="m369.26907 55.72622l0 -11.796875l5.109375 0q1.578125 0 2.71875 0.515625q1.15625 0.515625 1.78125 1.484375q0.625 0.953125 0.625 2.28125q0 1.3125 -0.625 2.28125q-0.625 0.953125 -1.78125 1.46875q-1.140625 0.515625 -2.71875 0.515625l-3.59375 0l1.21875 -1.234375l0 4.484375l-2.734375 0zm2.734375 -4.171875l-1.21875 -1.296875l3.4375 0q1.265625 0 1.890625 -0.53125q0.625 -0.546875 0.625 -1.515625q0 -0.96875 -0.625 -1.5q-0.625 -0.546875 -1.890625 -0.546875l-3.4375 0l1.21875 -1.296875l0 6.6875zm9.426758 4.171875l0 -11.796875l5.046875 0q2.453125 0 3.8125 1.140625q1.375 1.140625 1.375 3.140625q0 1.3125 -0.625 2.265625q-0.625 0.953125 -1.78125 1.46875q-1.140625 0.5 -2.71875 0.5l-3.59375 0l1.21875 -1.203125l0 4.484375l-2.734375 0zm7.5 0l-2.9375 -4.28125l2.90625 0l2.984375 4.28125l-2.953125 0zm-4.765625 -4.171875l-1.21875 -1.28125l3.4375 0q1.265625 0 1.890625 -0.546875q0.625 -0.546875 0.625 -1.515625q0 -0.96875 -0.625 -1.5q-0.625 -0.546875 -1.890625 -0.546875l-3.4375 0l1.21875 -1.296875l0 6.6875zm15.380188 4.375q-1.390625 0 -2.578125 -0.453125q-1.1875 -0.453125 -2.0625 -1.28125q-0.875 -0.828125 -1.359375 -1.9375q-0.46875 -1.109375 -0.46875 -2.421875q0 -1.3125 0.46875 -2.421875q0.484375 -1.125 1.359375 -1.9375q0.890625 -0.828125 2.0625 -1.28125q1.1875 -0.46875 2.5625 -0.46875q1.390625 0 2.5625 0.46875q1.171875 0.453125 2.03125 1.28125q0.875 0.8125 1.359375 1.921875q0.5 1.109375 0.5 2.4375q0 1.3125 -0.5 2.4375q-0.484375 1.109375 -1.359375 1.9375q-0.859375 0.8125 -2.03125 1.265625q-1.171875 0.453125 -2.546875 0.453125zm-0.015625 -2.328125q0.796875 0 1.453125 -0.265625q0.671875 -0.265625 1.171875 -0.765625q0.5 -0.515625 0.78125 -1.203125q0.28125 -0.6875 0.28125 -1.53125q0 -0.84375 -0.28125 -1.53125q-0.28125 -0.703125 -0.78125 -1.203125q-0.484375 -0.5 -1.15625 -0.765625q-0.671875 -0.28125 -1.46875 -0.28125q-0.796875 0 -1.46875 0.28125q-0.65625 0.265625 -1.171875 0.765625q-0.5 0.5 -0.78125 1.203125q-0.265625 0.6875 -0.265625 1.53125q0 0.828125 0.265625 1.53125q0.28125 0.6875 0.78125 1.203125q0.5 0.5 1.171875 0.765625q0.671875 0.265625 1.46875 0.265625zm8.497437 2.125l0 -11.796875l5.359375 0q1.921875 0 3.390625 0.734375q1.46875 0.734375 2.28125 2.046875q0.828125 1.3125 0.828125 3.125q0 1.78125 -0.828125 3.109375q-0.8125 1.3125 -2.28125 2.046875q-1.46875 0.734375 -3.390625 0.734375l-5.359375 0zm2.734375 -2.234375l2.5 0q1.171875 0 2.03125 -0.453125q0.875 -0.453125 1.359375 -1.265625q0.484375 -0.828125 0.484375 -1.9375q0 -1.140625 -0.484375 -1.953125q-0.484375 -0.8125 -1.359375 -1.25q-0.859375 -0.453125 -2.03125 -0.453125l-2.5 0l0 7.3125zm16.428589 2.4375q-2.515625 0 -3.9375 -1.390625q-1.40625 -1.40625 -1.40625 -4.0l0 -6.609375l2.734375 0l0 6.515625q0 1.671875 0.6875 2.421875q0.6875 0.734375 1.9375 0.734375q1.25 0 1.9375 -0.734375q0.6875 -0.75 0.6875 -2.421875l0 -6.515625l2.6875 0l0 6.609375q0 2.59375 -1.421875 4.0q-1.40625 1.390625 -3.90625 1.390625zm13.679169 0q-1.375 0 -2.546875 -0.4375q-1.171875 -0.453125 -2.03125 -1.28125q-0.859375 -0.828125 -1.34375 -1.9375q-0.46875 -1.109375 -0.46875 -2.4375q0 -1.328125 0.46875 -2.4375q0.484375 -1.125 1.359375 -1.9375q0.875 -0.828125 2.03125 -1.28125q1.15625 -0.453125 2.546875 -0.453125q1.53125 0 2.765625 0.53125q1.234375 0.53125 2.078125 1.5625l-1.75 1.625q-0.609375 -0.703125 -1.359375 -1.046875q-0.734375 -0.34375 -1.609375 -0.34375q-0.828125 0 -1.515625 0.28125q-0.6875 0.265625 -1.203125 0.765625q-0.5 0.5 -0.78125 1.203125q-0.265625 0.6875 -0.265625 1.53125q0 0.84375 0.265625 1.53125q0.28125 0.6875 0.78125 1.203125q0.515625 0.5 1.203125 0.765625q0.6875 0.265625 1.515625 0.265625q0.875 0 1.609375 -0.34375q0.75 -0.34375 1.359375 -1.046875l1.75 1.609375q-0.84375 1.03125 -2.078125 1.578125q-1.234375 0.53125 -2.78125 0.53125zm8.772705 -0.203125l0 -9.5625l-3.78125 0l0 -2.234375l10.28125 0l0 2.234375l-3.78125 0l0 9.5625l-2.71875 0zm11.747101 0.203125q-1.40625 0 -2.703125 -0.375q-1.296875 -0.390625 -2.09375 -0.984375l0.921875 -2.0625q0.765625 0.546875 1.796875 0.890625q1.046875 0.34375 2.09375 0.34375q0.8125 0 1.3125 -0.15625q0.5 -0.171875 0.734375 -0.453125q0.234375 -0.28125 0.234375 -0.65625q0 -0.46875 -0.375 -0.75q-0.359375 -0.28125 -0.96875 -0.453125q-0.609375 -0.171875 -1.34375 -0.328125q-0.734375 -0.171875 -1.46875 -0.40625q-0.734375 -0.234375 -1.34375 -0.609375q-0.59375 -0.375 -0.984375 -0.96875q-0.375 -0.609375 -0.375 -1.5625q0 -1.0 0.546875 -1.828125q0.546875 -0.84375 1.65625 -1.34375q1.109375 -0.5 2.765625 -0.5q1.109375 0 2.1875 0.265625q1.078125 0.265625 1.90625 0.78125l-0.84375 2.078125q-0.8125 -0.46875 -1.640625 -0.6875q-0.828125 -0.234375 -1.625 -0.234375q-0.78125 0 -1.296875 0.1875q-0.5 0.171875 -0.71875 0.46875q-0.21875 0.296875 -0.21875 0.6875q0 0.453125 0.359375 0.734375q0.375 0.28125 0.984375 0.453125q0.609375 0.15625 1.34375 0.328125q0.734375 0.171875 1.453125 0.390625q0.734375 0.21875 1.34375 0.59375q0.609375 0.359375 0.984375 0.96875q0.390625 0.609375 0.390625 1.53125q0 1.0 -0.5625 1.828125q-0.5625 0.8125 -1.671875 1.328125q-1.09375 0.5 -2.78125 0.5z" fill-rule="nonzero"/><path fill="#010000" fill-opacity="0.0" d="m466.86923 38.83721l0 0l0 21.452866l0 0l0 -21.452866z" fill-rule="nonzero"/><path fill="#000000" fill-opacity="0.0" d="m349.24786 68.42523l136.25195 0l0 20.440948l-136.25195 0z" fill-rule="evenodd"/><path fill="#5fa8d3" d="m367.87845 68.42523l98.99078 0l0 20.224007l-98.99078 0l0 -20.224007z" fill-rule="nonzero"/><path fill="#000000" fill-opacity="0.0" d="m367.87845 68.299644l98.99078 0l0 20.532585l-98.99078 0l0 -20.532585z" fill-rule="nonzero"/><path fill="#cae9ff" d="m369.26907 84.60444l0 -11.796875l5.109375 0q1.578125 0 2.71875 0.515625q1.15625 0.515625 1.78125 1.484375q0.625 0.953125 0.625 2.28125q0 1.3125 -0.625 2.28125q-0.625 0.953125 -1.78125 1.46875q-1.140625 0.515625 -2.71875 0.515625l-3.59375 0l1.21875 -1.234375l0 4.484375l-2.734375 0zm2.734375 -4.171875l-1.21875 -1.296875l3.4375 0q1.265625 0 1.890625 -0.53125q0.625 -0.546875 0.625 -1.515625q0 -0.96875 -0.625 -1.5q-0.625 -0.546875 -1.890625 -0.546875l-3.4375 0l1.21875 -1.296875l0 6.6875zm9.426758 4.171875l0 -11.796875l5.046875 0q2.453125 0 3.8125 1.140625q1.375 1.140625 1.375 3.140625q0 1.3125 -0.625 2.265625q-0.625 0.953125 -1.78125 1.46875q-1.140625 0.5 -2.71875 0.5l-3.59375 0l1.21875 -1.203125l0 4.484375l-2.734375 0zm7.5 0l-2.9375 -4.28125l2.90625 0l2.984375 4.28125l-2.953125 0zm-4.765625 -4.171875l-1.21875 -1.28125l3.4375 0q1.265625 0 1.890625 -0.546875q0.625 -0.546875 0.625 -1.515625q0 -0.96875 -0.625 -1.5q-0.625 -0.546875 -1.890625 -0.546875l-3.4375 0l1.21875 -1.296875l0 6.6875zm15.380188 4.375q-1.390625 0 -2.578125 -0.453125q-1.1875 -0.453125 -2.0625 -1.28125q-0.875 -0.828125 -1.359375 -1.9375q-0.46875 -1.109375 -0.46875 -2.421875q0 -1.3125 0.46875 -2.421875q0.484375 -1.125 1.359375 -1.9375q0.890625 -0.828125 2.0625 -1.28125q1.1875 -0.46875 2.5625 -0.46875q1.390625 0 2.5625 0.46875q1.171875 0.453125 2.03125 1.28125q0.875 0.8125 1.359375 1.921875q0.5 1.109375 0.5 2.4375q0 1.3125 -0.5 2.4375q-0.484375 1.109375 -1.359375 1.9375q-0.859375 0.8125 -2.03125 1.265625q-1.171875 0.453125 -2.546875 0.453125zm-0.015625 -2.328125q0.796875 0 1.453125 -0.265625q0.671875 -0.265625 1.171875 -0.765625q0.5 -0.515625 0.78125 -1.203125q0.28125 -0.6875 0.28125 -1.53125q0 -0.84375 -0.28125 -1.53125q-0.28125 -0.703125 -0.78125 -1.203125q-0.484375 -0.5 -1.15625 -0.765625q-0.671875 -0.28125 -1.46875 -0.28125q-0.796875 0 -1.46875 0.28125q-0.65625 0.265625 -1.171875 0.765625q-0.5 0.5 -0.78125 1.203125q-0.265625 0.6875 -0.265625 1.53125q0 0.828125 0.265625 1.53125q0.28125 0.6875 0.78125 1.203125q0.5 0.5 1.171875 0.765625q0.671875 0.265625 1.46875 0.265625zm8.497437 2.125l0 -11.796875l5.359375 0q1.921875 0 3.390625 0.734375q1.46875 0.734375 2.28125 2.046875q0.828125 1.3125 0.828125 3.125q0 1.78125 -0.828125 3.109375q-0.8125 1.3125 -2.28125 2.046875q-1.46875 0.734375 -3.390625 0.734375l-5.359375 0zm2.734375 -2.234375l2.5 0q1.171875 0 2.03125 -0.453125q0.875 -0.453125 1.359375 -1.265625q0.484375 -0.828125 0.484375 -1.9375q0 -1.140625 -0.484375 -1.953125q-0.484375 -0.8125 -1.359375 -1.25q-0.859375 -0.453125 -2.03125 -0.453125l-2.5 0l0 7.3125zm16.428589 2.4375q-2.515625 0 -3.9375 -1.390625q-1.40625 -1.40625 -1.40625 -4.0l0 -6.609375l2.734375 0l0 6.515625q0 1.671875 0.6875 2.421875q0.6875 0.734375 1.9375 0.734375q1.25 0 1.9375 -0.734375q0.6875 -0.75 0.6875 -2.421875l0 -6.515625l2.6875 0l0 6.609375q0 2.59375 -1.421875 4.0q-1.40625 1.390625 -3.90625 1.390625zm13.679169 0q-1.375 0 -2.546875 -0.4375q-1.171875 -0.453125 -2.03125 -1.28125q-0.859375 -0.828125 -1.34375 -1.9375q-0.46875 -1.109375 -0.46875 -2.4375q0 -1.328125 0.46875 -2.4375q0.484375 -1.125 1.359375 -1.9375q0.875 -0.828125 2.03125 -1.28125q1.15625 -0.453125 2.546875 -0.453125q1.53125 0 2.765625 0.53125q1.234375 0.53125 2.078125 1.5625l-1.75 1.625q-0.609375 -0.703125 -1.359375 -1.046875q-0.734375 -0.34375 -1.609375 -0.34375q-0.828125 0 -1.515625 0.28125q-0.6875 0.265625 -1.203125 0.765625q-0.5 0.5 -0.78125 1.203125q-0.265625 0.6875 -0.265625 1.53125q0 0.84375 0.265625 1.53125q0.28125 0.6875 0.78125 1.203125q0.515625 0.5 1.203125 0.765625q0.6875 0.265625 1.515625 0.265625q0.875 0 1.609375 -0.34375q0.75 -0.34375 1.359375 -1.046875l1.75 1.609375q-0.84375 1.03125 -2.078125 1.578125q-1.234375 0.53125 -2.78125 0.53125zm8.772705 -0.203125l0 -9.5625l-3.78125 0l0 -2.234375l10.28125 0l0 2.234375l-3.78125 0l0 9.5625l-2.71875 0zm11.747101 0.203125q-1.40625 0 -2.703125 -0.375q-1.296875 -0.390625 -2.09375 -0.984375l0.921875 -2.0625q0.765625 0.546875 1.796875 0.890625q1.046875 0.34375 2.09375 0.34375q0.8125 0 1.3125 -0.15625q0.5 -0.171875 0.734375 -0.453125q0.234375 -0.28125 0.234375 -0.65625q0 -0.46875 -0.375 -0.75q-0.359375 -0.28125 -0.96875 -0.453125q-0.609375 -0.171875 -1.34375 -0.328125q-0.734375 -0.171875 -1.46875 -0.40625q-0.734375 -0.234375 -1.34375 -0.609375q-0.59375 -0.375 -0.984375 -0.96875q-0.375 -0.609375 -0.375 -1.5625q0 -1.0 0.546875 -1.828125q0.546875 -0.84375 1.65625 -1.34375q1.109375 -0.5 2.765625 -0.5q1.109375 0 2.1875 0.265625q1.078125 0.265625 1.90625 0.78125l-0.84375 2.078125q-0.8125 -0.46875 -1.640625 -0.6875q-0.828125 -0.234375 -1.625 -0.234375q-0.78125 0 -1.296875 0.1875q-0.5 0.171875 -0.71875 0.46875q-0.21875 0.296875 -0.21875 0.6875q0 0.453125 0.359375 0.734375q0.375 0.28125 0.984375 0.453125q0.609375 0.15625 1.34375 0.328125q0.734375 0.171875 1.453125 0.390625q0.734375 0.21875 1.34375 0.59375q0.609375 0.359375 0.984375 0.96875q0.390625 0.609375 0.390625 1.53125q0 1.0 -0.5625 1.828125q-0.5625 0.8125 -1.671875 1.328125q-1.09375 0.5 -2.78125 0.5z" fill-rule="nonzero"/><path fill="#010000" fill-opacity="0.0" d="m466.86923 67.71543l0 0l0 21.452866l0 0l0 -21.452866z" fill-rule="nonzero"/><path fill="#000000" fill-opacity="0.0" d="m517.8417 10.854526l136.25195 0l0 20.440945l-136.25195 0z" fill-rule="evenodd"/><path fill="#5fa8d3" d="m536.4723 10.854526l98.99072 0l0 20.223999l-98.99072 0l0 -20.223999z" fill-rule="nonzero"/><path fill="#000000" fill-opacity="0.0" d="m536.4723 10.728932l98.99072 0l0 20.532585l-98.99072 0l0 -20.532585z" fill-rule="nonzero"/><path fill="#cae9ff" d="m537.8629 27.033726l0 -11.796874l5.109375 0q1.578125 0 2.71875 0.515625q1.15625 0.51562405 1.78125 1.484374q0.625 0.953125 0.625 2.28125q0 1.3125 -0.625 2.28125q-0.625 0.953125 -1.78125 1.46875q-1.140625 0.515625 -2.71875 0.515625l-3.59375 0l1.21875 -1.234375l0 4.484375l-2.734375 0zm2.734375 -4.171875l-1.21875 -1.296875l3.4375 0q1.265625 0 1.890625 -0.53125q0.625 -0.546875 0.625 -1.515625q0 -0.96875 -0.625 -1.5q-0.625 -0.546875 -1.890625 -0.546875l-3.4375 0l1.21875 -1.296875l0 6.6875zm9.426758 4.171875l0 -11.796874l5.046875 0q2.453125 0 3.8125 1.140624q1.375 1.140625 1.375 3.140625q0 1.3125 -0.625 2.265625q-0.625 0.953125 -1.78125 1.46875q-1.140625 0.5 -2.71875 0.5l-3.59375 0l1.21875 -1.203125l0 4.484375l-2.734375 0zm7.5 0l-2.9375 -4.28125l2.90625 0l2.984375 4.28125l-2.953125 0zm-4.765625 -4.171875l-1.21875 -1.28125l3.4375 0q1.265625 0 1.890625 -0.546875q0.625 -0.546875 0.625 -1.515625q0 -0.96875 -0.625 -1.5q-0.625 -0.546875 -1.890625 -0.546875l-3.4375 0l1.21875 -1.296875l0 6.6875zm15.380188 4.375q-1.390625 0 -2.578125 -0.453125q-1.1875 -0.453125 -2.0625 -1.28125q-0.875 -0.828125 -1.359375 -1.9375q-0.46875 -1.109375 -0.46875 -2.421875q0 -1.3125 0.46875 -2.421875q0.484375 -1.125 1.359375 -1.9375q0.890625 -0.82812405 2.0625 -1.281249q1.1875 -0.46875 2.5625 -0.46875q1.390625 0 2.5625 0.46875q1.171875 0.453125 2.03125 1.281249q0.875 0.8125 1.359375 1.921875q0.5 1.109375 0.5 2.4375q0 1.3125 -0.5 2.4375q-0.484375 1.109375 -1.359375 1.9375q-0.859375 0.8125 -2.03125 1.265625q-1.171875 0.453125 -2.546875 0.453125zm-0.015625 -2.328125q0.796875 0 1.453125 -0.265625q0.671875 -0.265625 1.171875 -0.765625q0.5 -0.515625 0.78125 -1.203125q0.28125 -0.6875 0.28125 -1.53125q0 -0.84375 -0.28125 -1.53125q-0.28125 -0.703125 -0.78125 -1.203125q-0.484375 -0.5 -1.15625 -0.765625q-0.671875 -0.28125 -1.46875 -0.28125q-0.796875 0 -1.46875 0.28125q-0.65625 0.265625 -1.171875 0.765625q-0.5 0.5 -0.78125 1.203125q-0.265625 0.6875 -0.265625 1.53125q0 0.828125 0.265625 1.53125q0.28125 0.6875 0.78125 1.203125q0.5 0.5 1.171875 0.765625q0.671875 0.265625 1.46875 0.265625zm8.4973755 2.125l0 -11.796874l5.359375 0q1.921875 0 3.390625 0.734375q1.46875 0.73437405 2.28125 2.046874q0.828125 1.3125 0.828125 3.125q0 1.78125 -0.828125 3.109375q-0.8125 1.3125 -2.28125 2.046875q-1.46875 0.734375 -3.390625 0.734375l-5.359375 0zm2.734375 -2.234375l2.5 0q1.171875 0 2.03125 -0.453125q0.875 -0.453125 1.359375 -1.265625q0.484375 -0.828125 0.484375 -1.9375q0 -1.140625 -0.484375 -1.953125q-0.484375 -0.8125 -1.359375 -1.25q-0.859375 -0.453125 -2.03125 -0.453125l-2.5 0l0 7.3125zm16.42865 2.4375q-2.515625 0 -3.9375 -1.390625q-1.40625 -1.40625 -1.40625 -4.0l0 -6.609374l2.734375 0l0 6.515624q0 1.671875 0.6875 2.421875q0.6875 0.734375 1.9375 0.734375q1.25 0 1.9375 -0.734375q0.6875 -0.75 0.6875 -2.421875l0 -6.515624l2.6875 0l0 6.609374q0 2.59375 -1.421875 4.0q-1.40625 1.390625 -3.90625 1.390625zm13.679138 0q-1.375 0 -2.546875 -0.4375q-1.171875 -0.453125 -2.03125 -1.28125q-0.859375 -0.828125 -1.34375 -1.9375q-0.46875 -1.109375 -0.46875 -2.4375q0 -1.328125 0.46875 -2.4375q0.484375 -1.125 1.359375 -1.9375q0.875 -0.82812405 2.03125 -1.281249q1.15625 -0.453125 2.546875 -0.453125q1.53125 0 2.765625 0.53125q1.234375 0.53124905 2.078125 1.562499l-1.75 1.625q-0.609375 -0.703125 -1.359375 -1.046875q-0.734375 -0.34375 -1.609375 -0.34375q-0.828125 0 -1.515625 0.28125q-0.6875 0.265625 -1.203125 0.765625q-0.5 0.5 -0.78125 1.203125q-0.265625 0.6875 -0.265625 1.53125q0 0.84375 0.265625 1.53125q0.28125 0.6875 0.78125 1.203125q0.515625 0.5 1.203125 0.765625q0.6875 0.265625 1.515625 0.265625q0.875 0 1.609375 -0.34375q0.75 -0.34375 1.359375 -1.046875l1.75 1.609375q-0.84375 1.03125 -2.078125 1.578125q-1.234375 0.53125 -2.78125 0.53125zm8.772705 -0.203125l0 -9.5625l-3.78125 0l0 -2.234374l10.28125 0l0 2.234374l-3.78125 0l0 9.5625l-2.71875 0zm11.74707 0.203125q-1.40625 0 -2.703125 -0.375q-1.296875 -0.390625 -2.09375 -0.984375l0.921875 -2.0625q0.765625 0.546875 1.796875 0.890625q1.046875 0.34375 2.09375 0.34375q0.8125 0 1.3125 -0.15625q0.5 -0.171875 0.734375 -0.453125q0.234375 -0.28125 0.234375 -0.65625q0 -0.46875 -0.375 -0.75q-0.359375 -0.28125 -0.96875 -0.453125q-0.609375 -0.171875 -1.34375 -0.328125q-0.734375 -0.171875 -1.46875 -0.40625q-0.734375 -0.234375 -1.34375 -0.609375q-0.59375 -0.375 -0.984375 -0.96875q-0.375 -0.609375 -0.375 -1.5625q0 -1.0 0.546875 -1.828125q0.546875 -0.84375 1.65625 -1.343749q1.109375 -0.5 2.765625 -0.5q1.109375 0 2.1875 0.265625q1.078125 0.265625 1.90625 0.78124905l-0.84375 2.078125q-0.8125 -0.46875 -1.640625 -0.6875q-0.828125 -0.234375 -1.625 -0.234375q-0.78125 0 -1.296875 0.1875q-0.5 0.171875 -0.71875 0.46875q-0.21875 0.296875 -0.21875 0.6875q0 0.453125 0.359375 0.734375q0.375 0.28125 0.984375 0.453125q0.609375 0.15625 1.34375 0.328125q0.734375 0.171875 1.453125 0.390625q0.734375 0.21875 1.34375 0.59375q0.609375 0.359375 0.984375 0.96875q0.390625 0.609375 0.390625 1.53125q0 1.0 -0.5625 1.828125q-0.5625 0.8125 -1.671875 1.328125q-1.09375 0.5 -2.78125 0.5z" fill-rule="nonzero"/><path fill="#010000" fill-opacity="0.0" d="m635.463 10.144719l0 0l0 21.452866l0 0l0 -21.452866z" fill-rule="nonzero"/><path fill="#000000" fill-opacity="0.0" d="m517.8417 39.36119l136.25195 0l0 20.440945l-136.25195 0z" fill-rule="evenodd"/><path fill="#5fa8d3" d="m536.4723 39.36119l98.99072 0l0 20.224003l-98.99072 0l0 -20.224003z" fill-rule="nonzero"/><path fill="#000000" fill-opacity="0.0" d="m536.4723 39.2356l98.99072 0l0 20.532585l-98.99072 0l0 -20.532585z" fill-rule="nonzero"/><path fill="#cae9ff" d="m537.8629 55.540394l0 -11.796875l5.109375 0q1.578125 0 2.71875 0.515625q1.15625 0.515625 1.78125 1.484375q0.625 0.953125 0.625 2.28125q0 1.3125 -0.625 2.28125q-0.625 0.953125 -1.78125 1.46875q-1.140625 0.515625 -2.71875 0.515625l-3.59375 0l1.21875 -1.234375l0 4.484375l-2.734375 0zm2.734375 -4.171875l-1.21875 -1.296875l3.4375 0q1.265625 0 1.890625 -0.53125q0.625 -0.546875 0.625 -1.515625q0 -0.96875 -0.625 -1.5q-0.625 -0.546875 -1.890625 -0.546875l-3.4375 0l1.21875 -1.296875l0 6.6875zm9.426758 4.171875l0 -11.796875l5.046875 0q2.453125 0 3.8125 1.140625q1.375 1.140625 1.375 3.140625q0 1.3125 -0.625 2.265625q-0.625 0.953125 -1.78125 1.46875q-1.140625 0.5 -2.71875 0.5l-3.59375 0l1.21875 -1.203125l0 4.484375l-2.734375 0zm7.5 0l-2.9375 -4.28125l2.90625 0l2.984375 4.28125l-2.953125 0zm-4.765625 -4.171875l-1.21875 -1.28125l3.4375 0q1.265625 0 1.890625 -0.546875q0.625 -0.546875 0.625 -1.515625q0 -0.96875 -0.625 -1.5q-0.625 -0.546875 -1.890625 -0.546875l-3.4375 0l1.21875 -1.296875l0 6.6875zm15.380188 4.375q-1.390625 0 -2.578125 -0.453125q-1.1875 -0.453125 -2.0625 -1.28125q-0.875 -0.828125 -1.359375 -1.9375q-0.46875 -1.109375 -0.46875 -2.421875q0 -1.3125 0.46875 -2.421875q0.484375 -1.125 1.359375 -1.9375q0.890625 -0.828125 2.0625 -1.28125q1.1875 -0.46875 2.5625 -0.46875q1.390625 0 2.5625 0.46875q1.171875 0.453125 2.03125 1.28125q0.875 0.8125 1.359375 1.921875q0.5 1.109375 0.5 2.4375q0 1.3125 -0.5 2.4375q-0.484375 1.109375 -1.359375 1.9375q-0.859375 0.8125 -2.03125 1.265625q-1.171875 0.453125 -2.546875 0.453125zm-0.015625 -2.328125q0.796875 0 1.453125 -0.265625q0.671875 -0.265625 1.171875 -0.765625q0.5 -0.515625 0.78125 -1.203125q0.28125 -0.6875 0.28125 -1.53125q0 -0.84375 -0.28125 -1.53125q-0.28125 -0.703125 -0.78125 -1.203125q-0.484375 -0.5 -1.15625 -0.765625q-0.671875 -0.28125 -1.46875 -0.28125q-0.796875 0 -1.46875 0.28125q-0.65625 0.265625 -1.171875 0.765625q-0.5 0.5 -0.78125 1.203125q-0.265625 0.6875 -0.265625 1.53125q0 0.828125 0.265625 1.53125q0.28125 0.6875 0.78125 1.203125q0.5 0.5 1.171875 0.765625q0.671875 0.265625 1.46875 0.265625zm8.4973755 2.125l0 -11.796875l5.359375 0q1.921875 0 3.390625 0.734375q1.46875 0.734375 2.28125 2.046875q0.828125 1.3125 0.828125 3.125q0 1.78125 -0.828125 3.109375q-0.8125 1.3125 -2.28125 2.046875q-1.46875 0.734375 -3.390625 0.734375l-5.359375 0zm2.734375 -2.234375l2.5 0q1.171875 0 2.03125 -0.453125q0.875 -0.453125 1.359375 -1.265625q0.484375 -0.828125 0.484375 -1.9375q0 -1.140625 -0.484375 -1.953125q-0.484375 -0.8125 -1.359375 -1.25q-0.859375 -0.453125 -2.03125 -0.453125l-2.5 0l0 7.3125zm16.42865 2.4375q-2.515625 0 -3.9375 -1.390625q-1.40625 -1.40625 -1.40625 -4.0l0 -6.609375l2.734375 0l0 6.515625q0 1.671875 0.6875 2.421875q0.6875 0.734375 1.9375 0.734375q1.25 0 1.9375 -0.734375q0.6875 -0.75 0.6875 -2.421875l0 -6.515625l2.6875 0l0 6.609375q0 2.59375 -1.421875 4.0q-1.40625 1.390625 -3.90625 1.390625zm13.679138 0q-1.375 0 -2.546875 -0.4375q-1.171875 -0.453125 -2.03125 -1.28125q-0.859375 -0.828125 -1.34375 -1.9375q-0.46875 -1.109375 -0.46875 -2.4375q0 -1.328125 0.46875 -2.4375q0.484375 -1.125 1.359375 -1.9375q0.875 -0.828125 2.03125 -1.28125q1.15625 -0.453125 2.546875 -0.453125q1.53125 0 2.765625 0.53125q1.234375 0.53125 2.078125 1.5625l-1.75 1.625q-0.609375 -0.703125 -1.359375 -1.046875q-0.734375 -0.34375 -1.609375 -0.34375q-0.828125 0 -1.515625 0.28125q-0.6875 0.265625 -1.203125 0.765625q-0.5 0.5 -0.78125 1.203125q-0.265625 0.6875 -0.265625 1.53125q0 0.84375 0.265625 1.53125q0.28125 0.6875 0.78125 1.203125q0.515625 0.5 1.203125 0.765625q0.6875 0.265625 1.515625 0.265625q0.875 0 1.609375 -0.34375q0.75 -0.34375 1.359375 -1.046875l1.75 1.609375q-0.84375 1.03125 -2.078125 1.578125q-1.234375 0.53125 -2.78125 0.53125zm8.772705 -0.203125l0 -9.5625l-3.78125 0l0 -2.234375l10.28125 0l0 2.234375l-3.78125 0l0 9.5625l-2.71875 0zm11.74707 0.203125q-1.40625 0 -2.703125 -0.375q-1.296875 -0.390625 -2.09375 -0.984375l0.921875 -2.0625q0.765625 0.546875 1.796875 0.890625q1.046875 0.34375 2.09375 0.34375q0.8125 0 1.3125 -0.15625q0.5 -0.171875 0.734375 -0.453125q0.234375 -0.28125 0.234375 -0.65625q0 -0.46875 -0.375 -0.75q-0.359375 -0.28125 -0.96875 -0.453125q-0.609375 -0.171875 -1.34375 -0.328125q-0.734375 -0.171875 -1.46875 -0.40625q-0.734375 -0.234375 -1.34375 -0.609375q-0.59375 -0.375 -0.984375 -0.96875q-0.375 -0.609375 -0.375 -1.5625q0 -1.0 0.546875 -1.828125q0.546875 -0.84375 1.65625 -1.34375q1.109375 -0.5 2.765625 -0.5q1.109375 0 2.1875 0.265625q1.078125 0.265625 1.90625 0.78125l-0.84375 2.078125q-0.8125 -0.46875 -1.640625 -0.6875q-0.828125 -0.234375 -1.625 -0.234375q-0.78125 0 -1.296875 0.1875q-0.5 0.171875 -0.71875 0.46875q-0.21875 0.296875 -0.21875 0.6875q0 0.453125 0.359375 0.734375q0.375 0.28125 0.984375 0.453125q0.609375 0.15625 1.34375 0.328125q0.734375 0.171875 1.453125 0.390625q0.734375 0.21875 1.34375 0.59375q0.609375 0.359375 0.984375 0.96875q0.390625 0.609375 0.390625 1.53125q0 1.0 -0.5625 1.828125q-0.5625 0.8125 -1.671875 1.328125q-1.09375 0.5 -2.78125 0.5z" fill-rule="nonzero"/><path fill="#010000" fill-opacity="0.0" d="m635.463 38.651386l0 0l0 21.452866l0 0l0 -21.452866z" fill-rule="nonzero"/><path fill="#000000" fill-opacity="0.0" d="m517.8417 68.23941l136.25195 0l0 20.44094l-136.25195 0z" fill-rule="evenodd"/><path fill="#5fa8d3" d="m536.4723 68.23941l98.99072 0l0 20.223999l-98.99072 0l0 -20.223999z" fill-rule="nonzero"/><path fill="#000000" fill-opacity="0.0" d="m536.4723 68.113815l98.99072 0l0 20.532585l-98.99072 0l0 -20.532585z" fill-rule="nonzero"/><path fill="#cae9ff" d="m537.8629 84.41861l0 -11.796875l5.109375 0q1.578125 0 2.71875 0.515625q1.15625 0.515625 1.78125 1.484375q0.625 0.953125 0.625 2.28125q0 1.3125 -0.625 2.28125q-0.625 0.953125 -1.78125 1.46875q-1.140625 0.515625 -2.71875 0.515625l-3.59375 0l1.21875 -1.234375l0 4.484375l-2.734375 0zm2.734375 -4.171875l-1.21875 -1.296875l3.4375 0q1.265625 0 1.890625 -0.53125q0.625 -0.546875 0.625 -1.515625q0 -0.96875 -0.625 -1.5q-0.625 -0.546875 -1.890625 -0.546875l-3.4375 0l1.21875 -1.296875l0 6.6875zm9.426758 4.171875l0 -11.796875l5.046875 0q2.453125 0 3.8125 1.140625q1.375 1.140625 1.375 3.140625q0 1.3125 -0.625 2.265625q-0.625 0.953125 -1.78125 1.46875q-1.140625 0.5 -2.71875 0.5l-3.59375 0l1.21875 -1.203125l0 4.484375l-2.734375 0zm7.5 0l-2.9375 -4.28125l2.90625 0l2.984375 4.28125l-2.953125 0zm-4.765625 -4.171875l-1.21875 -1.28125l3.4375 0q1.265625 0 1.890625 -0.546875q0.625 -0.546875 0.625 -1.515625q0 -0.96875 -0.625 -1.5q-0.625 -0.546875 -1.890625 -0.546875l-3.4375 0l1.21875 -1.296875l0 6.6875zm15.380188 4.375q-1.390625 0 -2.578125 -0.453125q-1.1875 -0.453125 -2.0625 -1.28125q-0.875 -0.828125 -1.359375 -1.9375q-0.46875 -1.109375 -0.46875 -2.421875q0 -1.3125 0.46875 -2.421875q0.484375 -1.125 1.359375 -1.9375q0.890625 -0.828125 2.0625 -1.28125q1.1875 -0.46875 2.5625 -0.46875q1.390625 0 2.5625 0.46875q1.171875 0.453125 2.03125 1.28125q0.875 0.8125 1.359375 1.921875q0.5 1.109375 0.5 2.4375q0 1.3125 -0.5 2.4375q-0.484375 1.109375 -1.359375 1.9375q-0.859375 0.8125 -2.03125 1.265625q-1.171875 0.453125 -2.546875 0.453125zm-0.015625 -2.328125q0.796875 0 1.453125 -0.265625q0.671875 -0.265625 1.171875 -0.765625q0.5 -0.515625 0.78125 -1.203125q0.28125 -0.6875 0.28125 -1.53125q0 -0.84375 -0.28125 -1.53125q-0.28125 -0.703125 -0.78125 -1.203125q-0.484375 -0.5 -1.15625 -0.765625q-0.671875 -0.28125 -1.46875 -0.28125q-0.796875 0 -1.46875 0.28125q-0.65625 0.265625 -1.171875 0.765625q-0.5 0.5 -0.78125 1.203125q-0.265625 0.6875 -0.265625 1.53125q0 0.828125 0.265625 1.53125q0.28125 0.6875 0.78125 1.203125q0.5 0.5 1.171875 0.765625q0.671875 0.265625 1.46875 0.265625zm8.4973755 2.125l0 -11.796875l5.359375 0q1.921875 0 3.390625 0.734375q1.46875 0.734375 2.28125 2.046875q0.828125 1.3125 0.828125 3.125q0 1.78125 -0.828125 3.109375q-0.8125 1.3125 -2.28125 2.046875q-1.46875 0.734375 -3.390625 0.734375l-5.359375 0zm2.734375 -2.234375l2.5 0q1.171875 0 2.03125 -0.453125q0.875 -0.453125 1.359375 -1.265625q0.484375 -0.828125 0.484375 -1.9375q0 -1.140625 -0.484375 -1.953125q-0.484375 -0.8125 -1.359375 -1.25q-0.859375 -0.453125 -2.03125 -0.453125l-2.5 0l0 7.3125zm16.42865 2.4375q-2.515625 0 -3.9375 -1.390625q-1.40625 -1.40625 -1.40625 -4.0l0 -6.609375l2.734375 0l0 6.515625q0 1.671875 0.6875 2.421875q0.6875 0.734375 1.9375 0.734375q1.25 0 1.9375 -0.734375q0.6875 -0.75 0.6875 -2.421875l0 -6.515625l2.6875 0l0 6.609375q0 2.59375 -1.421875 4.0q-1.40625 1.390625 -3.90625 1.390625zm13.679138 0q-1.375 0 -2.546875 -0.4375q-1.171875 -0.453125 -2.03125 -1.28125q-0.859375 -0.828125 -1.34375 -1.9375q-0.46875 -1.109375 -0.46875 -2.4375q0 -1.328125 0.46875 -2.4375q0.484375 -1.125 1.359375 -1.9375q0.875 -0.828125 2.03125 -1.28125q1.15625 -0.453125 2.546875 -0.453125q1.53125 0 2.765625 0.53125q1.234375 0.53125 2.078125 1.5625l-1.75 1.625q-0.609375 -0.703125 -1.359375 -1.046875q-0.734375 -0.34375 -1.609375 -0.34375q-0.828125 0 -1.515625 0.28125q-0.6875 0.265625 -1.203125 0.765625q-0.5 0.5 -0.78125 1.203125q-0.265625 0.6875 -0.265625 1.53125q0 0.84375 0.265625 1.53125q0.28125 0.6875 0.78125 1.203125q0.515625 0.5 1.203125 0.765625q0.6875 0.265625 1.515625 0.265625q0.875 0 1.609375 -0.34375q0.75 -0.34375 1.359375 -1.046875l1.75 1.609375q-0.84375 1.03125 -2.078125 1.578125q-1.234375 0.53125 -2.78125 0.53125zm8.772705 -0.203125l0 -9.5625l-3.78125 0l0 -2.234375l10.28125 0l0 2.234375l-3.78125 0l0 9.5625l-2.71875 0zm11.74707 0.203125q-1.40625 0 -2.703125 -0.375q-1.296875 -0.390625 -2.09375 -0.984375l0.921875 -2.0625q0.765625 0.546875 1.796875 0.890625q1.046875 0.34375 2.09375 0.34375q0.8125 0 1.3125 -0.15625q0.5 -0.171875 0.734375 -0.453125q0.234375 -0.28125 0.234375 -0.65625q0 -0.46875 -0.375 -0.75q-0.359375 -0.28125 -0.96875 -0.453125q-0.609375 -0.171875 -1.34375 -0.328125q-0.734375 -0.171875 -1.46875 -0.40625q-0.734375 -0.234375 -1.34375 -0.609375q-0.59375 -0.375 -0.984375 -0.96875q-0.375 -0.609375 -0.375 -1.5625q0 -1.0 0.546875 -1.828125q0.546875 -0.84375 1.65625 -1.34375q1.109375 -0.5 2.765625 -0.5q1.109375 0 2.1875 0.265625q1.078125 0.265625 1.90625 0.78125l-0.84375 2.078125q-0.8125 -0.46875 -1.640625 -0.6875q-0.828125 -0.234375 -1.625 -0.234375q-0.78125 0 -1.296875 0.1875q-0.5 0.171875 -0.71875 0.46875q-0.21875 0.296875 -0.21875 0.6875q0 0.453125 0.359375 0.734375q0.375 0.28125 0.984375 0.453125q0.609375 0.15625 1.34375 0.328125q0.734375 0.171875 1.453125 0.390625q0.734375 0.21875 1.34375 0.59375q0.609375 0.359375 0.984375 0.96875q0.390625 0.609375 0.390625 1.53125q0 1.0 -0.5625 1.828125q-0.5625 0.8125 -1.671875 1.328125q-1.09375 0.5 -2.78125 0.5z" fill-rule="nonzero"/><path fill="#010000" fill-opacity="0.0" d="m635.463 67.5296l0 0l0 21.452866l0 0l0 -21.452866z" fill-rule="nonzero"/><path fill="#000000" fill-opacity="0.0" d="m683.09436 11.1332655l136.25195 0l0 20.440945l-136.25195 0z" fill-rule="evenodd"/><path fill="#5fa8d3" d="m701.725 11.1332655l98.99078 0l0 20.223999l-98.99078 0l0 -20.223999z" fill-rule="nonzero"/><path fill="#000000" fill-opacity="0.0" d="m701.725 11.007672l98.99078 0l0 20.532585l-98.99078 0l0 -20.532585z" fill-rule="nonzero"/><path fill="#cae9ff" d="m703.1156 27.312466l0 -11.796874l5.109375 0q1.578125 0 2.71875 0.51562405q1.15625 0.515625 1.78125 1.484375q0.625 0.953125 0.625 2.28125q0 1.3125 -0.625 2.28125q-0.625 0.953125 -1.78125 1.46875q-1.140625 0.515625 -2.71875 0.515625l-3.59375 0l1.21875 -1.234375l0 4.484375l-2.734375 0zm2.734375 -4.171875l-1.21875 -1.296875l3.4375 0q1.265625 0 1.890625 -0.53125q0.625 -0.546875 0.625 -1.515625q0 -0.96875 -0.625 -1.5q-0.625 -0.546875 -1.890625 -0.546875l-3.4375 0l1.21875 -1.296875l0 6.6875zm9.426758 4.171875l0 -11.796874l5.046875 0q2.453125 0 3.8125 1.140624q1.375 1.140625 1.375 3.140625q0 1.3125 -0.625 2.265625q-0.625 0.953125 -1.78125 1.46875q-1.140625 0.5 -2.71875 0.5l-3.59375 0l1.21875 -1.203125l0 4.484375l-2.734375 0zm7.5 0l-2.9375 -4.28125l2.90625 0l2.984375 4.28125l-2.953125 0zm-4.765625 -4.171875l-1.21875 -1.28125l3.4375 0q1.265625 0 1.890625 -0.546875q0.625 -0.546875 0.625 -1.515625q0 -0.96875 -0.625 -1.5q-0.625 -0.546875 -1.890625 -0.546875l-3.4375 0l1.21875 -1.296875l0 6.6875zm15.380188 4.375q-1.390625 0 -2.578125 -0.453125q-1.1875 -0.453125 -2.0625 -1.28125q-0.875 -0.828125 -1.359375 -1.9375q-0.46875 -1.109375 -0.46875 -2.421875q0 -1.3125 0.46875 -2.421875q0.484375 -1.125 1.359375 -1.9375q0.890625 -0.828125 2.0625 -1.281249q1.1875 -0.46875 2.5625 -0.46875q1.390625 0 2.5625 0.46875q1.171875 0.45312405 2.03125 1.281249q0.875 0.8125 1.359375 1.921875q0.5 1.109375 0.5 2.4375q0 1.3125 -0.5 2.4375q-0.484375 1.109375 -1.359375 1.9375q-0.859375 0.8125 -2.03125 1.265625q-1.171875 0.453125 -2.546875 0.453125zm-0.015625 -2.328125q0.796875 0 1.453125 -0.265625q0.671875 -0.265625 1.171875 -0.765625q0.5 -0.515625 0.78125 -1.203125q0.28125 -0.6875 0.28125 -1.53125q0 -0.84375 -0.28125 -1.53125q-0.28125 -0.703125 -0.78125 -1.203125q-0.484375 -0.5 -1.15625 -0.765625q-0.671875 -0.28125 -1.46875 -0.28125q-0.796875 0 -1.46875 0.28125q-0.65625 0.265625 -1.171875 0.765625q-0.5 0.5 -0.78125 1.203125q-0.265625 0.6875 -0.265625 1.53125q0 0.828125 0.265625 1.53125q0.28125 0.6875 0.78125 1.203125q0.5 0.5 1.171875 0.765625q0.671875 0.265625 1.46875 0.265625zm8.497437 2.125l0 -11.796874l5.359375 0q1.921875 0 3.390625 0.73437405q1.46875 0.734375 2.28125 2.046875q0.828125 1.3125 0.828125 3.125q0 1.78125 -0.828125 3.109375q-0.8125 1.3125 -2.28125 2.046875q-1.46875 0.734375 -3.390625 0.734375l-5.359375 0zm2.734375 -2.234375l2.5 0q1.171875 0 2.03125 -0.453125q0.875 -0.453125 1.359375 -1.265625q0.484375 -0.828125 0.484375 -1.9375q0 -1.140625 -0.484375 -1.953125q-0.484375 -0.8125 -1.359375 -1.25q-0.859375 -0.453125 -2.03125 -0.453125l-2.5 0l0 7.3125zm16.428589 2.4375q-2.515625 0 -3.9375 -1.390625q-1.40625 -1.40625 -1.40625 -4.0l0 -6.609374l2.734375 0l0 6.515624q0 1.671875 0.6875 2.421875q0.6875 0.734375 1.9375 0.734375q1.25 0 1.9375 -0.734375q0.6875 -0.75 0.6875 -2.421875l0 -6.515624l2.6875 0l0 6.609374q0 2.59375 -1.421875 4.0q-1.40625 1.390625 -3.90625 1.390625zm13.679138 0q-1.375 0 -2.546875 -0.4375q-1.171875 -0.453125 -2.03125 -1.28125q-0.859375 -0.828125 -1.34375 -1.9375q-0.46875 -1.109375 -0.46875 -2.4375q0 -1.328125 0.46875 -2.4375q0.484375 -1.125 1.359375 -1.9375q0.875 -0.828125 2.03125 -1.281249q1.15625 -0.453125 2.546875 -0.453125q1.53125 0 2.765625 0.53125q1.234375 0.53124905 2.078125 1.562499l-1.75 1.625q-0.609375 -0.703125 -1.359375 -1.046875q-0.734375 -0.34375 -1.609375 -0.34375q-0.828125 0 -1.515625 0.28125q-0.6875 0.265625 -1.203125 0.765625q-0.5 0.5 -0.78125 1.203125q-0.265625 0.6875 -0.265625 1.53125q0 0.84375 0.265625 1.53125q0.28125 0.6875 0.78125 1.203125q0.515625 0.5 1.203125 0.765625q0.6875 0.265625 1.515625 0.265625q0.875 0 1.609375 -0.34375q0.75 -0.34375 1.359375 -1.046875l1.75 1.609375q-0.84375 1.03125 -2.078125 1.578125q-1.234375 0.53125 -2.78125 0.53125zm8.772705 -0.203125l0 -9.5625l-3.78125 0l0 -2.234374l10.28125 0l0 2.234374l-3.78125 0l0 9.5625l-2.71875 0zm11.747131 0.203125q-1.40625 0 -2.703125 -0.375q-1.296875 -0.390625 -2.09375 -0.984375l0.921875 -2.0625q0.765625 0.546875 1.796875 0.890625q1.046875 0.34375 2.09375 0.34375q0.8125 0 1.3125 -0.15625q0.5 -0.171875 0.734375 -0.453125q0.234375 -0.28125 0.234375 -0.65625q0 -0.46875 -0.375 -0.75q-0.359375 -0.28125 -0.96875 -0.453125q-0.609375 -0.171875 -1.34375 -0.328125q-0.734375 -0.171875 -1.46875 -0.40625q-0.734375 -0.234375 -1.34375 -0.609375q-0.59375 -0.375 -0.984375 -0.96875q-0.375 -0.609375 -0.375 -1.5625q0 -1.0 0.546875 -1.828125q0.546875 -0.84375 1.65625 -1.343749q1.109375 -0.5 2.765625 -0.5q1.109375 0 2.1875 0.265625q1.078125 0.265625 1.90625 0.78124905l-0.84375 2.078125q-0.8125 -0.46875 -1.640625 -0.6875q-0.828125 -0.234375 -1.625 -0.234375q-0.78125 0 -1.296875 0.1875q-0.5 0.171875 -0.71875 0.46875q-0.21875 0.296875 -0.21875 0.6875q0 0.453125 0.359375 0.734375q0.375 0.28125 0.984375 0.453125q0.609375 0.15625 1.34375 0.328125q0.734375 0.171875 1.453125 0.390625q0.734375 0.21875 1.34375 0.59375q0.609375 0.359375 0.984375 0.96875q0.390625 0.609375 0.390625 1.53125q0 1.0 -0.5625 1.828125q-0.5625 0.8125 -1.671875 1.328125q-1.09375 0.5 -2.78125 0.5z" fill-rule="nonzero"/><path fill="#010000" fill-opacity="0.0" d="m800.71576 10.423459l0 0l0 21.452866l0 0l0 -21.452866z" fill-rule="nonzero"/><path fill="#000000" fill-opacity="0.0" d="m683.09436 39.63993l136.25195 0l0 20.440945l-136.25195 0z" fill-rule="evenodd"/><path fill="#5fa8d3" d="m701.725 39.63993l98.99078 0l0 20.224003l-98.99078 0l0 -20.224003z" fill-rule="nonzero"/><path fill="#000000" fill-opacity="0.0" d="m701.725 39.51434l98.99078 0l0 20.532585l-98.99078 0l0 -20.532585z" fill-rule="nonzero"/><path fill="#cae9ff" d="m703.1156 55.819134l0 -11.796875l5.109375 0q1.578125 0 2.71875 0.515625q1.15625 0.515625 1.78125 1.484375q0.625 0.953125 0.625 2.28125q0 1.3125 -0.625 2.28125q-0.625 0.953125 -1.78125 1.46875q-1.140625 0.515625 -2.71875 0.515625l-3.59375 0l1.21875 -1.234375l0 4.484375l-2.734375 0zm2.734375 -4.171875l-1.21875 -1.296875l3.4375 0q1.265625 0 1.890625 -0.53125q0.625 -0.546875 0.625 -1.515625q0 -0.96875 -0.625 -1.5q-0.625 -0.546875 -1.890625 -0.546875l-3.4375 0l1.21875 -1.296875l0 6.6875zm9.426758 4.171875l0 -11.796875l5.046875 0q2.453125 0 3.8125 1.140625q1.375 1.140625 1.375 3.140625q0 1.3125 -0.625 2.265625q-0.625 0.953125 -1.78125 1.46875q-1.140625 0.5 -2.71875 0.5l-3.59375 0l1.21875 -1.203125l0 4.484375l-2.734375 0zm7.5 0l-2.9375 -4.28125l2.90625 0l2.984375 4.28125l-2.953125 0zm-4.765625 -4.171875l-1.21875 -1.28125l3.4375 0q1.265625 0 1.890625 -0.546875q0.625 -0.546875 0.625 -1.515625q0 -0.96875 -0.625 -1.5q-0.625 -0.546875 -1.890625 -0.546875l-3.4375 0l1.21875 -1.296875l0 6.6875zm15.380188 4.375q-1.390625 0 -2.578125 -0.453125q-1.1875 -0.453125 -2.0625 -1.28125q-0.875 -0.828125 -1.359375 -1.9375q-0.46875 -1.109375 -0.46875 -2.421875q0 -1.3125 0.46875 -2.421875q0.484375 -1.125 1.359375 -1.9375q0.890625 -0.828125 2.0625 -1.28125q1.1875 -0.46875 2.5625 -0.46875q1.390625 0 2.5625 0.46875q1.171875 0.453125 2.03125 1.28125q0.875 0.8125 1.359375 1.921875q0.5 1.109375 0.5 2.4375q0 1.3125 -0.5 2.4375q-0.484375 1.109375 -1.359375 1.9375q-0.859375 0.8125 -2.03125 1.265625q-1.171875 0.453125 -2.546875 0.453125zm-0.015625 -2.328125q0.796875 0 1.453125 -0.265625q0.671875 -0.265625 1.171875 -0.765625q0.5 -0.515625 0.78125 -1.203125q0.28125 -0.6875 0.28125 -1.53125q0 -0.84375 -0.28125 -1.53125q-0.28125 -0.703125 -0.78125 -1.203125q-0.484375 -0.5 -1.15625 -0.765625q-0.671875 -0.28125 -1.46875 -0.28125q-0.796875 0 -1.46875 0.28125q-0.65625 0.265625 -1.171875 0.765625q-0.5 0.5 -0.78125 1.203125q-0.265625 0.6875 -0.265625 1.53125q0 0.828125 0.265625 1.53125q0.28125 0.6875 0.78125 1.203125q0.5 0.5 1.171875 0.765625q0.671875 0.265625 1.46875 0.265625zm8.497437 2.125l0 -11.796875l5.359375 0q1.921875 0 3.390625 0.734375q1.46875 0.734375 2.28125 2.046875q0.828125 1.3125 0.828125 3.125q0 1.78125 -0.828125 3.109375q-0.8125 1.3125 -2.28125 2.046875q-1.46875 0.734375 -3.390625 0.734375l-5.359375 0zm2.734375 -2.234375l2.5 0q1.171875 0 2.03125 -0.453125q0.875 -0.453125 1.359375 -1.265625q0.484375 -0.828125 0.484375 -1.9375q0 -1.140625 -0.484375 -1.953125q-0.484375 -0.8125 -1.359375 -1.25q-0.859375 -0.453125 -2.03125 -0.453125l-2.5 0l0 7.3125zm16.428589 2.4375q-2.515625 0 -3.9375 -1.390625q-1.40625 -1.40625 -1.40625 -4.0l0 -6.609375l2.734375 0l0 6.515625q0 1.671875 0.6875 2.421875q0.6875 0.734375 1.9375 0.734375q1.25 0 1.9375 -0.734375q0.6875 -0.75 0.6875 -2.421875l0 -6.515625l2.6875 0l0 6.609375q0 2.59375 -1.421875 4.0q-1.40625 1.390625 -3.90625 1.390625zm13.679138 0q-1.375 0 -2.546875 -0.4375q-1.171875 -0.453125 -2.03125 -1.28125q-0.859375 -0.828125 -1.34375 -1.9375q-0.46875 -1.109375 -0.46875 -2.4375q0 -1.328125 0.46875 -2.4375q0.484375 -1.125 1.359375 -1.9375q0.875 -0.828125 2.03125 -1.28125q1.15625 -0.453125 2.546875 -0.453125q1.53125 0 2.765625 0.53125q1.234375 0.53125 2.078125 1.5625l-1.75 1.625q-0.609375 -0.703125 -1.359375 -1.046875q-0.734375 -0.34375 -1.609375 -0.34375q-0.828125 0 -1.515625 0.28125q-0.6875 0.265625 -1.203125 0.765625q-0.5 0.5 -0.78125 1.203125q-0.265625 0.6875 -0.265625 1.53125q0 0.84375 0.265625 1.53125q0.28125 0.6875 0.78125 1.203125q0.515625 0.5 1.203125 0.765625q0.6875 0.265625 1.515625 0.265625q0.875 0 1.609375 -0.34375q0.75 -0.34375 1.359375 -1.046875l1.75 1.609375q-0.84375 1.03125 -2.078125 1.578125q-1.234375 0.53125 -2.78125 0.53125zm8.772705 -0.203125l0 -9.5625l-3.78125 0l0 -2.234375l10.28125 0l0 2.234375l-3.78125 0l0 9.5625l-2.71875 0zm11.747131 0.203125q-1.40625 0 -2.703125 -0.375q-1.296875 -0.390625 -2.09375 -0.984375l0.921875 -2.0625q0.765625 0.546875 1.796875 0.890625q1.046875 0.34375 2.09375 0.34375q0.8125 0 1.3125 -0.15625q0.5 -0.171875 0.734375 -0.453125q0.234375 -0.28125 0.234375 -0.65625q0 -0.46875 -0.375 -0.75q-0.359375 -0.28125 -0.96875 -0.453125q-0.609375 -0.171875 -1.34375 -0.328125q-0.734375 -0.171875 -1.46875 -0.40625q-0.734375 -0.234375 -1.34375 -0.609375q-0.59375 -0.375 -0.984375 -0.96875q-0.375 -0.609375 -0.375 -1.5625q0 -1.0 0.546875 -1.828125q0.546875 -0.84375 1.65625 -1.34375q1.109375 -0.5 2.765625 -0.5q1.109375 0 2.1875 0.265625q1.078125 0.265625 1.90625 0.78125l-0.84375 2.078125q-0.8125 -0.46875 -1.640625 -0.6875q-0.828125 -0.234375 -1.625 -0.234375q-0.78125 0 -1.296875 0.1875q-0.5 0.171875 -0.71875 0.46875q-0.21875 0.296875 -0.21875 0.6875q0 0.453125 0.359375 0.734375q0.375 0.28125 0.984375 0.453125q0.609375 0.15625 1.34375 0.328125q0.734375 0.171875 1.453125 0.390625q0.734375 0.21875 1.34375 0.59375q0.609375 0.359375 0.984375 0.96875q0.390625 0.609375 0.390625 1.53125q0 1.0 -0.5625 1.828125q-0.5625 0.8125 -1.671875 1.328125q-1.09375 0.5 -2.78125 0.5z" fill-rule="nonzero"/><path fill="#010000" fill-opacity="0.0" d="m800.71576 38.930126l0 0l0 21.452866l0 0l0 -21.452866z" fill-rule="nonzero"/><path fill="#000000" fill-opacity="0.0" d="m683.09436 68.51815l136.25195 0l0 20.44094l-136.25195 0z" fill-rule="evenodd"/><path fill="#5fa8d3" d="m701.725 68.51815l98.99078 0l0 20.223999l-98.99078 0l0 -20.223999z" fill-rule="nonzero"/><path fill="#000000" fill-opacity="0.0" d="m701.725 68.392555l98.99078 0l0 20.532585l-98.99078 0l0 -20.532585z" fill-rule="nonzero"/><path fill="#cae9ff" d="m703.1156 84.69735l0 -11.796875l5.109375 0q1.578125 0 2.71875 0.515625q1.15625 0.515625 1.78125 1.484375q0.625 0.953125 0.625 2.28125q0 1.3125 -0.625 2.28125q-0.625 0.953125 -1.78125 1.46875q-1.140625 0.515625 -2.71875 0.515625l-3.59375 0l1.21875 -1.234375l0 4.484375l-2.734375 0zm2.734375 -4.171875l-1.21875 -1.296875l3.4375 0q1.265625 0 1.890625 -0.53125q0.625 -0.546875 0.625 -1.515625q0 -0.96875 -0.625 -1.5q-0.625 -0.546875 -1.890625 -0.546875l-3.4375 0l1.21875 -1.296875l0 6.6875zm9.426758 4.171875l0 -11.796875l5.046875 0q2.453125 0 3.8125 1.140625q1.375 1.140625 1.375 3.140625q0 1.3125 -0.625 2.265625q-0.625 0.953125 -1.78125 1.46875q-1.140625 0.5 -2.71875 0.5l-3.59375 0l1.21875 -1.203125l0 4.484375l-2.734375 0zm7.5 0l-2.9375 -4.28125l2.90625 0l2.984375 4.28125l-2.953125 0zm-4.765625 -4.171875l-1.21875 -1.28125l3.4375 0q1.265625 0 1.890625 -0.546875q0.625 -0.546875 0.625 -1.515625q0 -0.96875 -0.625 -1.5q-0.625 -0.546875 -1.890625 -0.546875l-3.4375 0l1.21875 -1.296875l0 6.6875zm15.380188 4.375q-1.390625 0 -2.578125 -0.453125q-1.1875 -0.453125 -2.0625 -1.28125q-0.875 -0.828125 -1.359375 -1.9375q-0.46875 -1.109375 -0.46875 -2.421875q0 -1.3125 0.46875 -2.421875q0.484375 -1.125 1.359375 -1.9375q0.890625 -0.828125 2.0625 -1.28125q1.1875 -0.46875 2.5625 -0.46875q1.390625 0 2.5625 0.46875q1.171875 0.453125 2.03125 1.28125q0.875 0.8125 1.359375 1.921875q0.5 1.109375 0.5 2.4375q0 1.3125 -0.5 2.4375q-0.484375 1.109375 -1.359375 1.9375q-0.859375 0.8125 -2.03125 1.265625q-1.171875 0.453125 -2.546875 0.453125zm-0.015625 -2.328125q0.796875 0 1.453125 -0.265625q0.671875 -0.265625 1.171875 -0.765625q0.5 -0.515625 0.78125 -1.203125q0.28125 -0.6875 0.28125 -1.53125q0 -0.84375 -0.28125 -1.53125q-0.28125 -0.703125 -0.78125 -1.203125q-0.484375 -0.5 -1.15625 -0.765625q-0.671875 -0.28125 -1.46875 -0.28125q-0.796875 0 -1.46875 0.28125q-0.65625 0.265625 -1.171875 0.765625q-0.5 0.5 -0.78125 1.203125q-0.265625 0.6875 -0.265625 1.53125q0 0.828125 0.265625 1.53125q0.28125 0.6875 0.78125 1.203125q0.5 0.5 1.171875 0.765625q0.671875 0.265625 1.46875 0.265625zm8.497437 2.125l0 -11.796875l5.359375 0q1.921875 0 3.390625 0.734375q1.46875 0.734375 2.28125 2.046875q0.828125 1.3125 0.828125 3.125q0 1.78125 -0.828125 3.109375q-0.8125 1.3125 -2.28125 2.046875q-1.46875 0.734375 -3.390625 0.734375l-5.359375 0zm2.734375 -2.234375l2.5 0q1.171875 0 2.03125 -0.453125q0.875 -0.453125 1.359375 -1.265625q0.484375 -0.828125 0.484375 -1.9375q0 -1.140625 -0.484375 -1.953125q-0.484375 -0.8125 -1.359375 -1.25q-0.859375 -0.453125 -2.03125 -0.453125l-2.5 0l0 7.3125zm16.428589 2.4375q-2.515625 0 -3.9375 -1.390625q-1.40625 -1.40625 -1.40625 -4.0l0 -6.609375l2.734375 0l0 6.515625q0 1.671875 0.6875 2.421875q0.6875 0.734375 1.9375 0.734375q1.25 0 1.9375 -0.734375q0.6875 -0.75 0.6875 -2.421875l0 -6.515625l2.6875 0l0 6.609375q0 2.59375 -1.421875 4.0q-1.40625 1.390625 -3.90625 1.390625zm13.679138 0q-1.375 0 -2.546875 -0.4375q-1.171875 -0.453125 -2.03125 -1.28125q-0.859375 -0.828125 -1.34375 -1.9375q-0.46875 -1.109375 -0.46875 -2.4375q0 -1.328125 0.46875 -2.4375q0.484375 -1.125 1.359375 -1.9375q0.875 -0.828125 2.03125 -1.28125q1.15625 -0.453125 2.546875 -0.453125q1.53125 0 2.765625 0.53125q1.234375 0.53125 2.078125 1.5625l-1.75 1.625q-0.609375 -0.703125 -1.359375 -1.046875q-0.734375 -0.34375 -1.609375 -0.34375q-0.828125 0 -1.515625 0.28125q-0.6875 0.265625 -1.203125 0.765625q-0.5 0.5 -0.78125 1.203125q-0.265625 0.6875 -0.265625 1.53125q0 0.84375 0.265625 1.53125q0.28125 0.6875 0.78125 1.203125q0.515625 0.5 1.203125 0.765625q0.6875 0.265625 1.515625 0.265625q0.875 0 1.609375 -0.34375q0.75 -0.34375 1.359375 -1.046875l1.75 1.609375q-0.84375 1.03125 -2.078125 1.578125q-1.234375 0.53125 -2.78125 0.53125zm8.772705 -0.203125l0 -9.5625l-3.78125 0l0 -2.234375l10.28125 0l0 2.234375l-3.78125 0l0 9.5625l-2.71875 0zm11.747131 0.203125q-1.40625 0 -2.703125 -0.375q-1.296875 -0.390625 -2.09375 -0.984375l0.921875 -2.0625q0.765625 0.546875 1.796875 0.890625q1.046875 0.34375 2.09375 0.34375q0.8125 0 1.3125 -0.15625q0.5 -0.171875 0.734375 -0.453125q0.234375 -0.28125 0.234375 -0.65625q0 -0.46875 -0.375 -0.75q-0.359375 -0.28125 -0.96875 -0.453125q-0.609375 -0.171875 -1.34375 -0.328125q-0.734375 -0.171875 -1.46875 -0.40625q-0.734375 -0.234375 -1.34375 -0.609375q-0.59375 -0.375 -0.984375 -0.96875q-0.375 -0.609375 -0.375 -1.5625q0 -1.0 0.546875 -1.828125q0.546875 -0.84375 1.65625 -1.34375q1.109375 -0.5 2.765625 -0.5q1.109375 0 2.1875 0.265625q1.078125 0.265625 1.90625 0.78125l-0.84375 2.078125q-0.8125 -0.46875 -1.640625 -0.6875q-0.828125 -0.234375 -1.625 -0.234375q-0.78125 0 -1.296875 0.1875q-0.5 0.171875 -0.71875 0.46875q-0.21875 0.296875 -0.21875 0.6875q0 0.453125 0.359375 0.734375q0.375 0.28125 0.984375 0.453125q0.609375 0.15625 1.34375 0.328125q0.734375 0.171875 1.453125 0.390625q0.734375 0.21875 1.34375 0.59375q0.609375 0.359375 0.984375 0.96875q0.390625 0.609375 0.390625 1.53125q0 1.0 -0.5625 1.828125q-0.5625 0.8125 -1.671875 1.328125q-1.09375 0.5 -2.78125 0.5z" fill-rule="nonzero"/><path fill="#010000" fill-opacity="0.0" d="m800.71576 67.80834l0 0l0 21.452866l0 0l0 -21.452866z" fill-rule="nonzero"/><path fill="#000000" fill-opacity="0.0" d="m851.6882 10.947438l136.25195 0l0 20.440945l-136.25195 0z" fill-rule="evenodd"/><path fill="#5fa8d3" d="m870.3188 10.947438l98.99078 0l0 20.224003l-98.99078 0l0 -20.224003z" fill-rule="nonzero"/><path fill="#000000" fill-opacity="0.0" d="m870.3188 10.821845l98.99078 0l0 20.532589l-98.99078 0l0 -20.532589z" fill-rule="nonzero"/><path fill="#cae9ff" d="m871.7094 27.12664l0 -11.796876l5.109375 0q1.578125 0 2.71875 0.515625q1.15625 0.51562595 1.78125 1.484376q0.625 0.953125 0.625 2.28125q0 1.3125 -0.625 2.28125q-0.625 0.953125 -1.78125 1.46875q-1.140625 0.515625 -2.71875 0.515625l-3.59375 0l1.21875 -1.234375l0 4.484375l-2.734375 0zm2.734375 -4.171875l-1.21875 -1.296875l3.4375 0q1.265625 0 1.890625 -0.53125q0.625 -0.546875 0.625 -1.515625q0 -0.96875 -0.625 -1.5q-0.625 -0.546875 -1.890625 -0.546875l-3.4375 0l1.21875 -1.296875l0 6.6875zm9.426758 4.171875l0 -11.796876l5.046875 0q2.453125 0 3.8125 1.140626q1.375 1.140625 1.375 3.140625q0 1.3125 -0.625 2.265625q-0.625 0.953125 -1.78125 1.46875q-1.140625 0.5 -2.71875 0.5l-3.59375 0l1.21875 -1.203125l0 4.484375l-2.734375 0zm7.5 0l-2.9375 -4.28125l2.90625 0l2.984375 4.28125l-2.953125 0zm-4.765625 -4.171875l-1.21875 -1.28125l3.4375 0q1.265625 0 1.890625 -0.546875q0.625 -0.546875 0.625 -1.515625q0 -0.96875 -0.625 -1.5q-0.625 -0.546875 -1.890625 -0.546875l-3.4375 0l1.21875 -1.296875l0 6.6875zm15.380188 4.375q-1.390625 0 -2.578125 -0.453125q-1.1875 -0.453125 -2.0625 -1.28125q-0.875 -0.828125 -1.359375 -1.9375q-0.46875 -1.109375 -0.46875 -2.421875q0 -1.3125 0.46875 -2.421875q0.484375 -1.125 1.359375 -1.9375q0.890625 -0.828125 2.0625 -1.281251q1.1875 -0.46875 2.5625 -0.46875q1.390625 0 2.5625 0.46875q1.171875 0.45312595 2.03125 1.281251q0.875 0.8125 1.359375 1.921875q0.5 1.109375 0.5 2.4375q0 1.3125 -0.5 2.4375q-0.484375 1.109375 -1.359375 1.9375q-0.859375 0.8125 -2.03125 1.265625q-1.171875 0.453125 -2.546875 0.453125zm-0.015625 -2.328125q0.796875 0 1.453125 -0.265625q0.671875 -0.265625 1.171875 -0.765625q0.5 -0.515625 0.78125 -1.203125q0.28125 -0.6875 0.28125 -1.53125q0 -0.84375 -0.28125 -1.53125q-0.28125 -0.703125 -0.78125 -1.203125q-0.484375 -0.5 -1.15625 -0.765625q-0.671875 -0.28125 -1.46875 -0.28125q-0.796875 0 -1.46875 0.28125q-0.65625 0.265625 -1.171875 0.765625q-0.5 0.5 -0.78125 1.203125q-0.265625 0.6875 -0.265625 1.53125q0 0.828125 0.265625 1.53125q0.28125 0.6875 0.78125 1.203125q0.5 0.5 1.171875 0.765625q0.671875 0.265625 1.46875 0.265625zm8.497437 2.125l0 -11.796876l5.359375 0q1.921875 0 3.390625 0.73437595q1.46875 0.734375 2.28125 2.046875q0.828125 1.3125 0.828125 3.125q0 1.78125 -0.828125 3.109375q-0.8125 1.3125 -2.28125 2.046875q-1.46875 0.734375 -3.390625 0.734375l-5.359375 0zm2.734375 -2.234375l2.5 0q1.171875 0 2.03125 -0.453125q0.875 -0.453125 1.359375 -1.265625q0.484375 -0.828125 0.484375 -1.9375q0 -1.140625 -0.484375 -1.953125q-0.484375 -0.8125 -1.359375 -1.25q-0.859375 -0.453125 -2.03125 -0.453125l-2.5 0l0 7.3125zm16.428589 2.4375q-2.515625 0 -3.9375 -1.390625q-1.40625 -1.40625 -1.40625 -4.0l0 -6.609376l2.734375 0l0 6.515626q0 1.671875 0.6875 2.421875q0.6875 0.734375 1.9375 0.734375q1.25 0 1.9375 -0.734375q0.6875 -0.75 0.6875 -2.421875l0 -6.515626l2.6875 0l0 6.609376q0 2.59375 -1.421875 4.0q-1.40625 1.390625 -3.90625 1.390625zm13.679138 0q-1.375 0 -2.546875 -0.4375q-1.171875 -0.453125 -2.03125 -1.28125q-0.859375 -0.828125 -1.34375 -1.9375q-0.46875 -1.109375 -0.46875 -2.4375q0 -1.328125 0.46875 -2.4375q0.484375 -1.125 1.359375 -1.9375q0.875 -0.828125 2.03125 -1.281251q1.15625 -0.453125 2.546875 -0.453125q1.53125 0 2.765625 0.53125q1.234375 0.53125095 2.078125 1.562501l-1.75 1.625q-0.609375 -0.703125 -1.359375 -1.046875q-0.734375 -0.34375 -1.609375 -0.34375q-0.828125 0 -1.515625 0.28125q-0.6875 0.265625 -1.203125 0.765625q-0.5 0.5 -0.78125 1.203125q-0.265625 0.6875 -0.265625 1.53125q0 0.84375 0.265625 1.53125q0.28125 0.6875 0.78125 1.203125q0.515625 0.5 1.203125 0.765625q0.6875 0.265625 1.515625 0.265625q0.875 0 1.609375 -0.34375q0.75 -0.34375 1.359375 -1.046875l1.75 1.609375q-0.84375 1.03125 -2.078125 1.578125q-1.234375 0.53125 -2.78125 0.53125zm8.772705 -0.203125l0 -9.5625l-3.78125 0l0 -2.234376l10.28125 0l0 2.234376l-3.78125 0l0 9.5625l-2.71875 0zm11.747131 0.203125q-1.40625 0 -2.703125 -0.375q-1.296875 -0.390625 -2.09375 -0.984375l0.921875 -2.0625q0.765625 0.546875 1.796875 0.890625q1.046875 0.34375 2.09375 0.34375q0.8125 0 1.3125 -0.15625q0.5 -0.171875 0.734375 -0.453125q0.234375 -0.28125 0.234375 -0.65625q0 -0.46875 -0.375 -0.75q-0.359375 -0.28125 -0.96875 -0.453125q-0.609375 -0.171875 -1.34375 -0.328125q-0.734375 -0.171875 -1.46875 -0.40625q-0.734375 -0.234375 -1.34375 -0.609375q-0.59375 -0.375 -0.984375 -0.96875q-0.375 -0.609375 -0.375 -1.5625q0 -1.0 0.546875 -1.828125q0.546875 -0.84375 1.65625 -1.343751q1.109375 -0.5 2.765625 -0.5q1.109375 0 2.1875 0.265625q1.078125 0.265625 1.90625 0.78125095l-0.84375 2.078125q-0.8125 -0.46875 -1.640625 -0.6875q-0.828125 -0.234375 -1.625 -0.234375q-0.78125 0 -1.296875 0.1875q-0.5 0.171875 -0.71875 0.46875q-0.21875 0.296875 -0.21875 0.6875q0 0.453125 0.359375 0.734375q0.375 0.28125 0.984375 0.453125q0.609375 0.15625 1.34375 0.328125q0.734375 0.171875 1.453125 0.390625q0.734375 0.21875 1.34375 0.59375q0.609375 0.359375 0.984375 0.96875q0.390625 0.609375 0.390625 1.53125q0 1.0 -0.5625 1.828125q-0.5625 0.8125 -1.671875 1.328125q-1.09375 0.5 -2.78125 0.5z" fill-rule="nonzero"/><path fill="#010000" fill-opacity="0.0" d="m969.3096 10.237632l0 0l0 21.452866l0 0l0 -21.452866z" fill-rule="nonzero"/><path fill="#000000" fill-opacity="0.0" d="m851.6882 39.454105l136.25195 0l0 20.440945l-136.25195 0z" fill-rule="evenodd"/><path fill="#5fa8d3" d="m870.3188 39.454105l98.99078 0l0 20.223999l-98.99078 0l0 -20.223999z" fill-rule="nonzero"/><path fill="#000000" fill-opacity="0.0" d="m870.3188 39.32851l98.99078 0l0 20.532589l-98.99078 0l0 -20.532589z" fill-rule="nonzero"/><path fill="#cae9ff" d="m871.7094 55.633305l0 -11.796875l5.109375 0q1.578125 0 2.71875 0.515625q1.15625 0.515625 1.78125 1.484375q0.625 0.953125 0.625 2.28125q0 1.3125 -0.625 2.28125q-0.625 0.953125 -1.78125 1.46875q-1.140625 0.515625 -2.71875 0.515625l-3.59375 0l1.21875 -1.234375l0 4.484375l-2.734375 0zm2.734375 -4.171875l-1.21875 -1.296875l3.4375 0q1.265625 0 1.890625 -0.53125q0.625 -0.546875 0.625 -1.515625q0 -0.96875 -0.625 -1.5q-0.625 -0.546875 -1.890625 -0.546875l-3.4375 0l1.21875 -1.296875l0 6.6875zm9.426758 4.171875l0 -11.796875l5.046875 0q2.453125 0 3.8125 1.140625q1.375 1.140625 1.375 3.140625q0 1.3125 -0.625 2.265625q-0.625 0.953125 -1.78125 1.46875q-1.140625 0.5 -2.71875 0.5l-3.59375 0l1.21875 -1.203125l0 4.484375l-2.734375 0zm7.5 0l-2.9375 -4.28125l2.90625 0l2.984375 4.28125l-2.953125 0zm-4.765625 -4.171875l-1.21875 -1.28125l3.4375 0q1.265625 0 1.890625 -0.546875q0.625 -0.546875 0.625 -1.515625q0 -0.96875 -0.625 -1.5q-0.625 -0.546875 -1.890625 -0.546875l-3.4375 0l1.21875 -1.296875l0 6.6875zm15.380188 4.375q-1.390625 0 -2.578125 -0.453125q-1.1875 -0.453125 -2.0625 -1.28125q-0.875 -0.828125 -1.359375 -1.9375q-0.46875 -1.109375 -0.46875 -2.421875q0 -1.3125 0.46875 -2.421875q0.484375 -1.125 1.359375 -1.9375q0.890625 -0.828125 2.0625 -1.28125q1.1875 -0.46875 2.5625 -0.46875q1.390625 0 2.5625 0.46875q1.171875 0.453125 2.03125 1.28125q0.875 0.8125 1.359375 1.921875q0.5 1.109375 0.5 2.4375q0 1.3125 -0.5 2.4375q-0.484375 1.109375 -1.359375 1.9375q-0.859375 0.8125 -2.03125 1.265625q-1.171875 0.453125 -2.546875 0.453125zm-0.015625 -2.328125q0.796875 0 1.453125 -0.265625q0.671875 -0.265625 1.171875 -0.765625q0.5 -0.515625 0.78125 -1.203125q0.28125 -0.6875 0.28125 -1.53125q0 -0.84375 -0.28125 -1.53125q-0.28125 -0.703125 -0.78125 -1.203125q-0.484375 -0.5 -1.15625 -0.765625q-0.671875 -0.28125 -1.46875 -0.28125q-0.796875 0 -1.46875 0.28125q-0.65625 0.265625 -1.171875 0.765625q-0.5 0.5 -0.78125 1.203125q-0.265625 0.6875 -0.265625 1.53125q0 0.828125 0.265625 1.53125q0.28125 0.6875 0.78125 1.203125q0.5 0.5 1.171875 0.765625q0.671875 0.265625 1.46875 0.265625zm8.497437 2.125l0 -11.796875l5.359375 0q1.921875 0 3.390625 0.734375q1.46875 0.734375 2.28125 2.046875q0.828125 1.3125 0.828125 3.125q0 1.78125 -0.828125 3.109375q-0.8125 1.3125 -2.28125 2.046875q-1.46875 0.734375 -3.390625 0.734375l-5.359375 0zm2.734375 -2.234375l2.5 0q1.171875 0 2.03125 -0.453125q0.875 -0.453125 1.359375 -1.265625q0.484375 -0.828125 0.484375 -1.9375q0 -1.140625 -0.484375 -1.953125q-0.484375 -0.8125 -1.359375 -1.25q-0.859375 -0.453125 -2.03125 -0.453125l-2.5 0l0 7.3125zm16.428589 2.4375q-2.515625 0 -3.9375 -1.390625q-1.40625 -1.40625 -1.40625 -4.0l0 -6.609375l2.734375 0l0 6.515625q0 1.671875 0.6875 2.421875q0.6875 0.734375 1.9375 0.734375q1.25 0 1.9375 -0.734375q0.6875 -0.75 0.6875 -2.421875l0 -6.515625l2.6875 0l0 6.609375q0 2.59375 -1.421875 4.0q-1.40625 1.390625 -3.90625 1.390625zm13.679138 0q-1.375 0 -2.546875 -0.4375q-1.171875 -0.453125 -2.03125 -1.28125q-0.859375 -0.828125 -1.34375 -1.9375q-0.46875 -1.109375 -0.46875 -2.4375q0 -1.328125 0.46875 -2.4375q0.484375 -1.125 1.359375 -1.9375q0.875 -0.828125 2.03125 -1.28125q1.15625 -0.453125 2.546875 -0.453125q1.53125 0 2.765625 0.53125q1.234375 0.53125 2.078125 1.5625l-1.75 1.625q-0.609375 -0.703125 -1.359375 -1.046875q-0.734375 -0.34375 -1.609375 -0.34375q-0.828125 0 -1.515625 0.28125q-0.6875 0.265625 -1.203125 0.765625q-0.5 0.5 -0.78125 1.203125q-0.265625 0.6875 -0.265625 1.53125q0 0.84375 0.265625 1.53125q0.28125 0.6875 0.78125 1.203125q0.515625 0.5 1.203125 0.765625q0.6875 0.265625 1.515625 0.265625q0.875 0 1.609375 -0.34375q0.75 -0.34375 1.359375 -1.046875l1.75 1.609375q-0.84375 1.03125 -2.078125 1.578125q-1.234375 0.53125 -2.78125 0.53125zm8.772705 -0.203125l0 -9.5625l-3.78125 0l0 -2.234375l10.28125 0l0 2.234375l-3.78125 0l0 9.5625l-2.71875 0zm11.747131 0.203125q-1.40625 0 -2.703125 -0.375q-1.296875 -0.390625 -2.09375 -0.984375l0.921875 -2.0625q0.765625 0.546875 1.796875 0.890625q1.046875 0.34375 2.09375 0.34375q0.8125 0 1.3125 -0.15625q0.5 -0.171875 0.734375 -0.453125q0.234375 -0.28125 0.234375 -0.65625q0 -0.46875 -0.375 -0.75q-0.359375 -0.28125 -0.96875 -0.453125q-0.609375 -0.171875 -1.34375 -0.328125q-0.734375 -0.171875 -1.46875 -0.40625q-0.734375 -0.234375 -1.34375 -0.609375q-0.59375 -0.375 -0.984375 -0.96875q-0.375 -0.609375 -0.375 -1.5625q0 -1.0 0.546875 -1.828125q0.546875 -0.84375 1.65625 -1.34375q1.109375 -0.5 2.765625 -0.5q1.109375 0 2.1875 0.265625q1.078125 0.265625 1.90625 0.78125l-0.84375 2.078125q-0.8125 -0.46875 -1.640625 -0.6875q-0.828125 -0.234375 -1.625 -0.234375q-0.78125 0 -1.296875 0.1875q-0.5 0.171875 -0.71875 0.46875q-0.21875 0.296875 -0.21875 0.6875q0 0.453125 0.359375 0.734375q0.375 0.28125 0.984375 0.453125q0.609375 0.15625 1.34375 0.328125q0.734375 0.171875 1.453125 0.390625q0.734375 0.21875 1.34375 0.59375q0.609375 0.359375 0.984375 0.96875q0.390625 0.609375 0.390625 1.53125q0 1.0 -0.5625 1.828125q-0.5625 0.8125 -1.671875 1.328125q-1.09375 0.5 -2.78125 0.5z" fill-rule="nonzero"/><path fill="#010000" fill-opacity="0.0" d="m969.3096 38.744297l0 0l0 21.452866l0 0l0 -21.452866z" fill-rule="nonzero"/><path fill="#000000" fill-opacity="0.0" d="m851.6882 68.33232l136.25195 0l0 20.44094l-136.25195 0z" fill-rule="evenodd"/><path fill="#5fa8d3" d="m870.3188 68.33232l98.99078 0l0 20.223999l-98.99078 0l0 -20.223999z" fill-rule="nonzero"/><path fill="#000000" fill-opacity="0.0" d="m870.3188 68.206726l98.99078 0l0 20.532585l-98.99078 0l0 -20.532585z" fill-rule="nonzero"/><path fill="#cae9ff" d="m871.7094 84.51152l0 -11.796875l5.109375 0q1.578125 0 2.71875 0.515625q1.15625 0.515625 1.78125 1.484375q0.625 0.953125 0.625 2.28125q0 1.3125 -0.625 2.28125q-0.625 0.953125 -1.78125 1.46875q-1.140625 0.515625 -2.71875 0.515625l-3.59375 0l1.21875 -1.234375l0 4.484375l-2.734375 0zm2.734375 -4.171875l-1.21875 -1.296875l3.4375 0q1.265625 0 1.890625 -0.53125q0.625 -0.546875 0.625 -1.515625q0 -0.96875 -0.625 -1.5q-0.625 -0.546875 -1.890625 -0.546875l-3.4375 0l1.21875 -1.296875l0 6.6875zm9.426758 4.171875l0 -11.796875l5.046875 0q2.453125 0 3.8125 1.140625q1.375 1.140625 1.375 3.140625q0 1.3125 -0.625 2.265625q-0.625 0.953125 -1.78125 1.46875q-1.140625 0.5 -2.71875 0.5l-3.59375 0l1.21875 -1.203125l0 4.484375l-2.734375 0zm7.5 0l-2.9375 -4.28125l2.90625 0l2.984375 4.28125l-2.953125 0zm-4.765625 -4.171875l-1.21875 -1.28125l3.4375 0q1.265625 0 1.890625 -0.546875q0.625 -0.546875 0.625 -1.515625q0 -0.96875 -0.625 -1.5q-0.625 -0.546875 -1.890625 -0.546875l-3.4375 0l1.21875 -1.296875l0 6.6875zm15.380188 4.375q-1.390625 0 -2.578125 -0.453125q-1.1875 -0.453125 -2.0625 -1.28125q-0.875 -0.828125 -1.359375 -1.9375q-0.46875 -1.109375 -0.46875 -2.421875q0 -1.3125 0.46875 -2.421875q0.484375 -1.125 1.359375 -1.9375q0.890625 -0.828125 2.0625 -1.28125q1.1875 -0.46875 2.5625 -0.46875q1.390625 0 2.5625 0.46875q1.171875 0.453125 2.03125 1.28125q0.875 0.8125 1.359375 1.921875q0.5 1.109375 0.5 2.4375q0 1.3125 -0.5 2.4375q-0.484375 1.109375 -1.359375 1.9375q-0.859375 0.8125 -2.03125 1.265625q-1.171875 0.453125 -2.546875 0.453125zm-0.015625 -2.328125q0.796875 0 1.453125 -0.265625q0.671875 -0.265625 1.171875 -0.765625q0.5 -0.515625 0.78125 -1.203125q0.28125 -0.6875 0.28125 -1.53125q0 -0.84375 -0.28125 -1.53125q-0.28125 -0.703125 -0.78125 -1.203125q-0.484375 -0.5 -1.15625 -0.765625q-0.671875 -0.28125 -1.46875 -0.28125q-0.796875 0 -1.46875 0.28125q-0.65625 0.265625 -1.171875 0.765625q-0.5 0.5 -0.78125 1.203125q-0.265625 0.6875 -0.265625 1.53125q0 0.828125 0.265625 1.53125q0.28125 0.6875 0.78125 1.203125q0.5 0.5 1.171875 0.765625q0.671875 0.265625 1.46875 0.265625zm8.497437 2.125l0 -11.796875l5.359375 0q1.921875 0 3.390625 0.734375q1.46875 0.734375 2.28125 2.046875q0.828125 1.3125 0.828125 3.125q0 1.78125 -0.828125 3.109375q-0.8125 1.3125 -2.28125 2.046875q-1.46875 0.734375 -3.390625 0.734375l-5.359375 0zm2.734375 -2.234375l2.5 0q1.171875 0 2.03125 -0.453125q0.875 -0.453125 1.359375 -1.265625q0.484375 -0.828125 0.484375 -1.9375q0 -1.140625 -0.484375 -1.953125q-0.484375 -0.8125 -1.359375 -1.25q-0.859375 -0.453125 -2.03125 -0.453125l-2.5 0l0 7.3125zm16.428589 2.4375q-2.515625 0 -3.9375 -1.390625q-1.40625 -1.40625 -1.40625 -4.0l0 -6.609375l2.734375 0l0 6.515625q0 1.671875 0.6875 2.421875q0.6875 0.734375 1.9375 0.734375q1.25 0 1.9375 -0.734375q0.6875 -0.75 0.6875 -2.421875l0 -6.515625l2.6875 0l0 6.609375q0 2.59375 -1.421875 4.0q-1.40625 1.390625 -3.90625 1.390625zm13.679138 0q-1.375 0 -2.546875 -0.4375q-1.171875 -0.453125 -2.03125 -1.28125q-0.859375 -0.828125 -1.34375 -1.9375q-0.46875 -1.109375 -0.46875 -2.4375q0 -1.328125 0.46875 -2.4375q0.484375 -1.125 1.359375 -1.9375q0.875 -0.828125 2.03125 -1.28125q1.15625 -0.453125 2.546875 -0.453125q1.53125 0 2.765625 0.53125q1.234375 0.53125 2.078125 1.5625l-1.75 1.625q-0.609375 -0.703125 -1.359375 -1.046875q-0.734375 -0.34375 -1.609375 -0.34375q-0.828125 0 -1.515625 0.28125q-0.6875 0.265625 -1.203125 0.765625q-0.5 0.5 -0.78125 1.203125q-0.265625 0.6875 -0.265625 1.53125q0 0.84375 0.265625 1.53125q0.28125 0.6875 0.78125 1.203125q0.515625 0.5 1.203125 0.765625q0.6875 0.265625 1.515625 0.265625q0.875 0 1.609375 -0.34375q0.75 -0.34375 1.359375 -1.046875l1.75 1.609375q-0.84375 1.03125 -2.078125 1.578125q-1.234375 0.53125 -2.78125 0.53125zm8.772705 -0.203125l0 -9.5625l-3.78125 0l0 -2.234375l10.28125 0l0 2.234375l-3.78125 0l0 9.5625l-2.71875 0zm11.747131 0.203125q-1.40625 0 -2.703125 -0.375q-1.296875 -0.390625 -2.09375 -0.984375l0.921875 -2.0625q0.765625 0.546875 1.796875 0.890625q1.046875 0.34375 2.09375 0.34375q0.8125 0 1.3125 -0.15625q0.5 -0.171875 0.734375 -0.453125q0.234375 -0.28125 0.234375 -0.65625q0 -0.46875 -0.375 -0.75q-0.359375 -0.28125 -0.96875 -0.453125q-0.609375 -0.171875 -1.34375 -0.328125q-0.734375 -0.171875 -1.46875 -0.40625q-0.734375 -0.234375 -1.34375 -0.609375q-0.59375 -0.375 -0.984375 -0.96875q-0.375 -0.609375 -0.375 -1.5625q0 -1.0 0.546875 -1.828125q0.546875 -0.84375 1.65625 -1.34375q1.109375 -0.5 2.765625 -0.5q1.109375 0 2.1875 0.265625q1.078125 0.265625 1.90625 0.78125l-0.84375 2.078125q-0.8125 -0.46875 -1.640625 -0.6875q-0.828125 -0.234375 -1.625 -0.234375q-0.78125 0 -1.296875 0.1875q-0.5 0.171875 -0.71875 0.46875q-0.21875 0.296875 -0.21875 0.6875q0 0.453125 0.359375 0.734375q0.375 0.28125 0.984375 0.453125q0.609375 0.15625 1.34375 0.328125q0.734375 0.171875 1.453125 0.390625q0.734375 0.21875 1.34375 0.59375q0.609375 0.359375 0.984375 0.96875q0.390625 0.609375 0.390625 1.53125q0 1.0 -0.5625 1.828125q-0.5625 0.8125 -1.671875 1.328125q-1.09375 0.5 -2.78125 0.5z" fill-rule="nonzero"/><path fill="#010000" fill-opacity="0.0" d="m969.3096 67.62251l0 0l0 21.452866l0 0l0 -21.452866z" fill-rule="nonzero"/></g></svg>